<svg width="204" height="213" viewBox="0 0 204 213" fill="none" xmlns="http://www.w3.org/2000/svg">
<g clip-path="url(#clip0_10_7487)">
<path fill-rule="evenodd" clip-rule="evenodd" d="M102 194.333C148.058 194.333 185.395 157.022 185.395 110.996C185.395 64.9699 148.058 27.6585 102 27.6585C55.9418 27.6585 18.6045 64.9699 18.6045 110.996C18.6045 157.022 55.9418 194.333 102 194.333Z" stroke="#3AD29F" stroke-width="0.305962" stroke-dasharray="1.84 1.84"/>
<path fill-rule="evenodd" clip-rule="evenodd" d="M102 212.011C157.828 212.011 203.085 166.785 203.085 110.996C203.085 55.2068 157.828 9.98087 102 9.98087C46.1724 9.98087 0.915039 55.2068 0.915039 110.996C0.915039 166.785 46.1724 212.011 102 212.011Z" stroke="#3AD29F" stroke-width="0.305962" stroke-dasharray="1.84 1.84"/>
<path d="M169.655 143.178C169.658 131.417 160.704 121.586 148.987 120.485C137.269 119.384 126.638 127.374 124.447 138.929L54.3643 137.03L55.1336 149.062C55.1336 149.062 45.1402 172.104 97.6624 178.244V201.533H158.381V162.811C165.358 158.728 169.648 151.257 169.655 143.178Z" fill="url(#paint0_linear_10_7487)"/>
<path d="M57.5399 149.567C57.5399 149.567 47.9705 171.633 98.2688 177.52V199.833H156.418V140.742L56.793 138.043L57.5399 149.567Z" fill="#FFCBB4"/>
<path d="M86.6016 57.4832C83.4452 62.4605 76.8589 63.9561 71.86 60.8307L40.6387 40.2713C35.658 37.1171 34.1613 30.5354 37.2889 25.54C40.4448 20.5695 47.0226 19.0747 52.0192 22.1925L83.2405 42.7518C88.2252 45.9023 89.7271 52.4848 86.6016 57.4832Z" fill="url(#paint1_linear_10_7487)"/>
<path d="M84.8719 56.3608C81.938 60.9873 75.8159 62.3776 71.1693 59.4726L42.1382 40.3471C37.5085 37.4152 36.1172 31.2974 39.0242 26.6539C41.9581 22.0275 48.0801 20.6372 52.7268 23.5421L81.7523 42.6564C86.3908 45.5869 87.7855 51.7135 84.8719 56.3608Z" fill="#FFCBB4"/>
<path d="M145.38 165.752C157.441 165.752 167.217 155.982 167.217 143.93C167.217 131.878 157.441 122.108 145.38 122.108C133.32 122.108 123.543 131.878 123.543 143.93C123.543 155.982 133.32 165.752 145.38 165.752Z" fill="#FFCBB4"/>
<path d="M141.449 0H57.7952C55.8955 0 54.3555 1.53894 54.3555 3.43732V159.859C54.3555 161.757 55.8955 163.296 57.7952 163.296H141.449C143.348 163.296 144.888 161.757 144.888 159.859V3.43732C144.888 1.53894 143.348 0 141.449 0Z" fill="url(#paint2_linear_10_7487)"/>
<path d="M139.832 2.20831H59.4072C57.2919 2.20831 55.5771 3.92187 55.5771 6.03566V157.266C55.5771 159.38 57.2919 161.094 59.4072 161.094H139.832C141.947 161.094 143.662 159.38 143.662 157.266V6.03566C143.662 3.92187 141.947 2.20831 139.832 2.20831Z" fill="white"/>
<path d="M121.749 6.19278C121.222 9.67445 118.233 12.2518 114.709 12.2621H84.2883C80.7657 12.2504 77.778 9.6734 77.2516 6.19278H61.1342C60.2467 6.19278 59.3954 6.5438 58.7676 7.17061C58.1398 7.79742 57.7871 8.64788 57.7871 9.53469V153.762C57.7871 154.649 58.1384 155.499 58.7656 156.127C59.3929 156.754 60.2439 157.106 61.1313 157.106H138.108C138.995 157.106 139.847 156.755 140.474 156.129C141.102 155.502 141.455 154.651 141.455 153.764V9.5375C141.455 8.65068 141.104 7.79993 140.476 7.1726C139.849 6.54526 138.998 6.19278 138.111 6.19278H121.749Z" fill="#E9ECFF"/>
<path d="M108.997 8.09244H90.4903C90.1801 8.09244 89.9287 8.34369 89.9287 8.65363V8.75745C89.9287 9.06739 90.1801 9.31865 90.4903 9.31865H108.997C109.307 9.31865 109.559 9.06739 109.559 8.75745V8.65363C109.559 8.34369 109.307 8.09244 108.997 8.09244Z" fill="#DBDBDB"/>
<path d="M113.729 9.49764C114.234 9.49764 114.644 9.08835 114.644 8.58347C114.644 8.0786 114.234 7.66931 113.729 7.66931C113.224 7.66931 112.814 8.0786 112.814 8.58347C112.814 9.08835 113.224 9.49764 113.729 9.49764Z" fill="#DBDBDB"/>
<path d="M159.495 147.779C153.157 149.244 148.808 145.114 147.342 138.783L132.78 84.7488C131.331 78.394 135.289 72.0625 141.639 70.5758C147.999 69.1279 154.335 73.0828 155.822 79.4287L167.705 134.858C169.171 141.191 165.83 146.315 159.495 147.779Z" fill="url(#paint3_linear_10_7487)"/>
<path d="M154.188 80.7514C152.953 75.4078 147.616 72.0769 142.269 73.3115C136.922 74.5461 133.588 79.8789 134.824 85.2225L148.214 143.136C149.45 148.479 154.786 151.81 160.133 150.576C165.481 149.341 168.814 144.008 167.579 138.665L154.188 80.7514Z" fill="#FFCBB4"/>
<path d="M167.124 192.532H84.0098V211.893H167.124V192.532Z" fill="url(#paint4_linear_10_7487)"/>
<path d="M164.878 194.777H86.2559V209.929H164.878V194.777Z" fill="#4D8AF0"/>
<path d="M74.4825 115.449C71.3645 120.367 64.8569 121.845 59.9178 118.757L38.9791 105.218C34.0576 102.103 32.5784 95.5995 35.6686 90.6638C38.7867 85.7457 45.2942 84.2676 50.2333 87.3556L71.172 100.894C76.0935 104.01 77.5727 110.513 74.4825 115.449Z" fill="url(#paint5_linear_10_7487)"/>
<path d="M69.2262 144.106C66.0804 149.07 59.5136 150.562 54.5295 147.445L41.5598 137.995C36.5931 134.851 35.1 128.289 38.2183 123.308C41.3642 118.345 47.931 116.853 52.915 119.969L65.8848 129.423C70.8498 132.566 72.3426 139.126 69.2262 144.106Z" fill="url(#paint6_linear_10_7487)"/>
<g opacity="0.5">
<path d="M99.6187 106.888C113.566 106.888 124.873 95.589 124.873 81.651C124.873 67.713 113.566 56.4141 99.6187 56.4141C85.6711 56.4141 74.3643 67.713 74.3643 81.651C74.3643 95.589 85.6711 106.888 99.6187 106.888Z" fill="url(#paint7_linear_10_7487)"/>
</g>
<path d="M99.6187 105.404C112.746 105.404 123.388 94.7692 123.388 81.651C123.388 68.5328 112.746 57.8984 99.6187 57.8984C86.4914 57.8984 75.8496 68.5328 75.8496 81.651C75.8496 94.7692 86.4914 105.404 99.6187 105.404Z" fill="#69F0AE"/>
<path d="M89.3028 78.4803L98.2151 86.6456L110.842 68.0898L115.301 71.8021L98.2151 94.0703L85.5879 79.9674L89.3028 78.4803Z" fill="white"/>
<path d="M68.1786 143.402C65.2446 148.029 59.1226 149.419 54.4759 146.514L42.3794 137.714C37.7497 134.782 36.3584 128.665 39.2654 124.021C42.1993 119.395 48.3214 118.004 52.968 120.909L65.0618 129.726C69.6822 132.656 71.0736 138.761 68.1786 143.402Z" fill="#FFCBB4"/>
<path d="M73.3312 114.705C70.3973 119.332 64.2753 120.722 59.6286 117.817L39.9282 105.078C35.2985 102.146 33.9072 96.0284 36.8142 91.3849C39.7482 86.7585 45.8702 85.3682 50.5169 88.2731L70.2172 101.012C74.8469 103.944 76.2382 110.062 73.3312 114.705Z" fill="#FFCBB4"/>
<path d="M79.8959 86.9263C76.7625 91.8659 70.2256 93.3502 65.2638 90.2485L38.729 72.9834C33.7858 69.8521 32.3006 63.3198 35.4044 58.3614C38.5378 53.4218 45.0747 51.9375 50.0365 55.0392L76.5713 72.3043C81.5144 75.4356 82.9997 81.9679 79.8959 86.9263Z" fill="url(#paint8_linear_10_7487)"/>
<path d="M78.4867 86.0283C75.5528 90.6548 69.4307 92.0451 64.784 89.1401L39.9311 72.9693C35.3014 70.0374 33.9102 63.9196 36.8171 59.2762C39.7511 54.6497 45.8731 53.2594 50.5198 56.1643L75.3699 72.3352C80.0006 75.2662 81.3932 81.3841 78.4867 86.0283Z" fill="#FFCBB4"/>
</g>
<defs>
<linearGradient id="paint0_linear_10_7487" x1="112.014" y1="201.547" x2="112.014" y2="120.387" gradientUnits="userSpaceOnUse">
<stop stop-color="#808080" stop-opacity="0.25"/>
<stop offset="0.54" stop-color="#808080" stop-opacity="0.12"/>
<stop offset="1" stop-color="#808080" stop-opacity="0.1"/>
</linearGradient>
<linearGradient id="paint1_linear_10_7487" x1="61.9424" y1="62.4666" x2="61.9424" y2="20.5622" gradientUnits="userSpaceOnUse">
<stop stop-color="#808080" stop-opacity="0.25"/>
<stop offset="0.54" stop-color="#808080" stop-opacity="0.12"/>
<stop offset="1" stop-color="#808080" stop-opacity="0.1"/>
</linearGradient>
<linearGradient id="paint2_linear_10_7487" x1="99.622" y1="163.294" x2="99.622" y2="-0.00280317" gradientUnits="userSpaceOnUse">
<stop stop-color="#808080" stop-opacity="0.25"/>
<stop offset="0.54" stop-color="#808080" stop-opacity="0.12"/>
<stop offset="1" stop-color="#808080" stop-opacity="0.1"/>
</linearGradient>
<linearGradient id="paint3_linear_10_7487" x1="150.262" y1="148.071" x2="150.262" y2="70.2728" gradientUnits="userSpaceOnUse">
<stop stop-color="#808080" stop-opacity="0.25"/>
<stop offset="0.54" stop-color="#808080" stop-opacity="0.12"/>
<stop offset="1" stop-color="#808080" stop-opacity="0.1"/>
</linearGradient>
<linearGradient id="paint4_linear_10_7487" x1="125.573" y1="211.887" x2="125.573" y2="192.526" gradientUnits="userSpaceOnUse">
<stop stop-color="#808080" stop-opacity="0.25"/>
<stop offset="0.54" stop-color="#808080" stop-opacity="0.12"/>
<stop offset="1" stop-color="#808080" stop-opacity="0.1"/>
</linearGradient>
<linearGradient id="paint5_linear_10_7487" x1="55.0713" y1="120.371" x2="55.0713" y2="85.7449" gradientUnits="userSpaceOnUse">
<stop stop-color="#808080" stop-opacity="0.25"/>
<stop offset="0.54" stop-color="#808080" stop-opacity="0.12"/>
<stop offset="1" stop-color="#808080" stop-opacity="0.1"/>
</linearGradient>
<linearGradient id="paint6_linear_10_7487" x1="53.7237" y1="149.073" x2="53.7237" y2="118.339" gradientUnits="userSpaceOnUse">
<stop stop-color="#808080" stop-opacity="0.25"/>
<stop offset="0.54" stop-color="#808080" stop-opacity="0.12"/>
<stop offset="1" stop-color="#808080" stop-opacity="0.1"/>
</linearGradient>
<linearGradient id="paint7_linear_10_7487" x1="99.6187" y1="106.888" x2="99.6187" y2="56.4113" gradientUnits="userSpaceOnUse">
<stop stop-color="#808080" stop-opacity="0.25"/>
<stop offset="0.54" stop-color="#808080" stop-opacity="0.12"/>
<stop offset="1" stop-color="#808080" stop-opacity="0.1"/>
</linearGradient>
<linearGradient id="paint8_linear_10_7487" x1="57.6487" y1="91.8788" x2="57.6487" y2="53.4285" gradientUnits="userSpaceOnUse">
<stop stop-color="#808080" stop-opacity="0.25"/>
<stop offset="0.54" stop-color="#808080" stop-opacity="0.12"/>
<stop offset="1" stop-color="#808080" stop-opacity="0.1"/>
</linearGradient>
<clipPath id="clip0_10_7487">
<rect width="204" height="213" fill="white"/>
</clipPath>
</defs>
</svg>
