<svg width="262" height="259" viewBox="0 0 262 259" fill="none" xmlns="http://www.w3.org/2000/svg">
<circle cx="102" cy="45.5" r="45.5" fill="#3862F8"/>
<circle cx="160" cy="45.5" r="45.5" fill="#E9EEFF"/>
<path d="M45.2383 116.684L37.0483 146H30.1183L24.6163 125.126L18.8623 146L11.9743 146.042L4.0783 116.684H10.3783L15.5443 139.448L21.5083 116.684H28.0603L33.6883 139.322L38.8963 116.684H45.2383ZM70.7077 133.862C70.7077 134.702 70.6517 135.458 70.5397 136.13H53.5297C53.6697 137.81 54.2577 139.126 55.2937 140.078C56.3297 141.03 57.6037 141.506 59.1157 141.506C61.2997 141.506 62.8537 140.568 63.7777 138.692H70.1197C69.4477 140.932 68.1597 142.78 66.2557 144.236C64.3517 145.664 62.0137 146.378 59.2417 146.378C57.0017 146.378 54.9857 145.888 53.1937 144.908C51.4297 143.9 50.0437 142.486 49.0357 140.666C48.0557 138.846 47.5657 136.746 47.5657 134.366C47.5657 131.958 48.0557 129.844 49.0357 128.024C50.0157 126.204 51.3877 124.804 53.1517 123.824C54.9157 122.844 56.9457 122.354 59.2417 122.354C61.4537 122.354 63.4277 122.83 65.1637 123.782C66.9277 124.734 68.2857 126.092 69.2377 127.856C70.2177 129.592 70.7077 131.594 70.7077 133.862ZM64.6177 132.182C64.5897 130.67 64.0437 129.466 62.9797 128.57C61.9157 127.646 60.6137 127.184 59.0737 127.184C57.6177 127.184 56.3857 127.632 55.3777 128.528C54.3977 129.396 53.7957 130.614 53.5717 132.182H64.6177ZM80.8796 114.92V146H74.9996V114.92H80.8796ZM85.177 134.366C85.177 131.958 85.667 129.858 86.647 128.066C87.627 126.246 88.985 124.846 90.721 123.866C92.457 122.858 94.445 122.354 96.685 122.354C99.569 122.354 101.949 123.082 103.825 124.538C105.729 125.966 107.003 127.982 107.647 130.586H101.305C100.969 129.578 100.395 128.794 99.583 128.234C98.799 127.646 97.819 127.352 96.643 127.352C94.963 127.352 93.633 127.968 92.653 129.2C91.673 130.404 91.183 132.126 91.183 134.366C91.183 136.578 91.673 138.3 92.653 139.532C93.633 140.736 94.963 141.338 96.643 141.338C99.023 141.338 100.577 140.274 101.305 138.146H107.647C107.003 140.666 105.729 142.668 103.825 144.152C101.921 145.636 99.541 146.378 96.685 146.378C94.445 146.378 92.457 145.888 90.721 144.908C88.985 143.9 87.627 142.5 86.647 140.708C85.667 138.888 85.177 136.774 85.177 134.366ZM122.287 146.378C120.047 146.378 118.031 145.888 116.239 144.908C114.447 143.9 113.033 142.486 111.997 140.666C110.989 138.846 110.485 136.746 110.485 134.366C110.485 131.986 111.003 129.886 112.039 128.066C113.103 126.246 114.545 124.846 116.365 123.866C118.185 122.858 120.215 122.354 122.455 122.354C124.695 122.354 126.725 122.858 128.545 123.866C130.365 124.846 131.793 126.246 132.829 128.066C133.893 129.886 134.425 131.986 134.425 134.366C134.425 136.746 133.879 138.846 132.787 140.666C131.723 142.486 130.267 143.9 128.419 144.908C126.599 145.888 124.555 146.378 122.287 146.378ZM122.287 141.254C123.351 141.254 124.345 141.002 125.269 140.498C126.221 139.966 126.977 139.182 127.537 138.146C128.097 137.11 128.377 135.85 128.377 134.366C128.377 132.154 127.789 130.46 126.613 129.284C125.465 128.08 124.051 127.478 122.371 127.478C120.691 127.478 119.277 128.08 118.129 129.284C117.009 130.46 116.449 132.154 116.449 134.366C116.449 136.578 116.995 138.286 118.087 139.49C119.207 140.666 120.607 141.254 122.287 141.254ZM167.634 122.396C170.49 122.396 172.786 123.278 174.522 125.042C176.286 126.778 177.168 129.214 177.168 132.35V146H171.288V133.148C171.288 131.328 170.826 129.942 169.902 128.99C168.978 128.01 167.718 127.52 166.122 127.52C164.526 127.52 163.252 128.01 162.3 128.99C161.376 129.942 160.914 131.328 160.914 133.148V146H155.034V133.148C155.034 131.328 154.572 129.942 153.648 128.99C152.724 128.01 151.464 127.52 149.868 127.52C148.244 127.52 146.956 128.01 146.004 128.99C145.08 129.942 144.618 131.328 144.618 133.148V146H138.738V122.732H144.618V125.546C145.374 124.566 146.34 123.796 147.516 123.236C148.72 122.676 150.036 122.396 151.464 122.396C153.284 122.396 154.908 122.788 156.336 123.572C157.764 124.328 158.87 125.42 159.654 126.848C160.41 125.504 161.502 124.426 162.93 123.614C164.386 122.802 165.954 122.396 167.634 122.396ZM204.378 133.862C204.378 134.702 204.322 135.458 204.21 136.13H187.2C187.34 137.81 187.928 139.126 188.964 140.078C190 141.03 191.274 141.506 192.786 141.506C194.97 141.506 196.524 140.568 197.448 138.692H203.79C203.118 140.932 201.83 142.78 199.926 144.236C198.022 145.664 195.684 146.378 192.912 146.378C190.672 146.378 188.656 145.888 186.864 144.908C185.1 143.9 183.714 142.486 182.706 140.666C181.726 138.846 181.236 136.746 181.236 134.366C181.236 131.958 181.726 129.844 182.706 128.024C183.686 126.204 185.058 124.804 186.822 123.824C188.586 122.844 190.616 122.354 192.912 122.354C195.124 122.354 197.098 122.83 198.834 123.782C200.598 124.734 201.956 126.092 202.908 127.856C203.888 129.592 204.378 131.594 204.378 133.862ZM198.288 132.182C198.26 130.67 197.714 129.466 196.65 128.57C195.586 127.646 194.284 127.184 192.744 127.184C191.288 127.184 190.056 127.632 189.048 128.528C188.068 129.396 187.466 130.614 187.242 132.182H198.288ZM225.523 127.562V138.818C225.523 139.602 225.705 140.176 226.069 140.54C226.461 140.876 227.105 141.044 228.001 141.044H230.731V146H227.035C222.079 146 219.601 143.592 219.601 138.776V127.562H216.829V122.732H219.601V116.978H225.523V122.732H230.731V127.562H225.523ZM245.293 146.378C243.053 146.378 241.037 145.888 239.245 144.908C237.453 143.9 236.039 142.486 235.003 140.666C233.995 138.846 233.491 136.746 233.491 134.366C233.491 131.986 234.009 129.886 235.045 128.066C236.109 126.246 237.551 124.846 239.371 123.866C241.191 122.858 243.221 122.354 245.461 122.354C247.701 122.354 249.731 122.858 251.551 123.866C253.371 124.846 254.799 126.246 255.835 128.066C256.899 129.886 257.431 131.986 257.431 134.366C257.431 136.746 256.885 138.846 255.792 140.666C254.729 142.486 253.273 143.9 251.425 144.908C249.605 145.888 247.561 146.378 245.293 146.378ZM245.293 141.254C246.357 141.254 247.351 141.002 248.275 140.498C249.227 139.966 249.983 139.182 250.543 138.146C251.103 137.11 251.383 135.85 251.383 134.366C251.383 132.154 250.795 130.46 249.619 129.284C248.471 128.08 247.057 127.478 245.377 127.478C243.697 127.478 242.283 128.08 241.135 129.284C240.015 130.46 239.455 132.154 239.455 134.366C239.455 136.578 240.001 138.286 241.093 139.49C242.213 140.666 243.613 141.254 245.293 141.254Z" fill="#060F27"/>
<path d="M69.8208 178.21C63.3816 175.535 61.888 176.878 32.3101 184.849L36.1878 186.53C60.7101 179.923 60.0183 180.318 61.2955 180.151C73.954 178.488 81.5179 193.383 73.4644 203.079C71.6067 205.3 69.1054 206.885 66.3085 207.613C58.8049 209.629 59.5677 208.753 59.5003 212.678C59.5358 211.356 61.338 211.207 67.4473 209.561C82.6638 205.454 84.2142 184.194 69.8208 178.21Z" fill="url(#paint0_linear_136_9262)"/>
<path d="M47.1644 204.703C45.3231 207.909 46.3235 209.373 50.4141 224.689L52.0993 222.356C48.775 209.889 46.6854 204.685 50.7654 201.697C48.8034 202.505 47.8952 203.463 47.1644 204.703Z" fill="url(#paint1_linear_136_9262)"/>
<path d="M63.1722 189.041C62.4627 189.095 62.5975 189.109 32.3065 197.28C32.3065 215.852 32.044 215.923 33.1083 218.448C36.3013 226.017 43.8226 224.689 50.4108 224.689C46.3202 209.372 45.3198 207.923 47.1611 204.703C49.162 201.23 52.167 201.319 63.7363 197.918C65.2158 197.487 68.0469 196.828 67.9405 193.426C67.9177 192.823 67.7759 192.23 67.5233 191.682C67.2706 191.134 66.9121 190.642 66.4686 190.234C66.0251 189.826 65.5053 189.51 64.9395 189.306C64.3736 189.101 63.7729 189.011 63.1722 189.041Z" fill="url(#paint2_linear_136_9262)"/>
<path d="M77.5579 169.038C80.26 169.041 82.8504 170.121 84.7597 172.04C86.669 173.96 87.741 176.562 87.7401 179.275V214.47C87.741 216.48 87.1515 218.446 86.0453 220.121C84.9391 221.797 83.3653 223.108 81.5208 223.891C79.0657 224.931 78.8706 224.692 62.7885 224.692C61.0394 218.238 60.2376 215.314 59.9042 213.843C59.4146 211.684 59.5813 211.616 63.5087 210.601C68.0144 209.437 72.1866 208.685 75.9047 204.208C82.7129 196.016 80.5452 182.666 69.8202 178.206C63.381 175.531 61.8874 176.874 32.3095 184.845C32.3095 180.215 31.1919 172.96 38.5287 169.839C41.1541 168.735 39.2631 169.038 77.5579 169.038Z" fill="url(#paint3_linear_136_9262)"/>
<path d="M45.1883 223.453C39.9233 223.453 36.2656 222.523 34.332 217.932C33.5941 216.186 33.5799 215.966 33.6225 206.27C33.6225 204.108 33.6225 201.49 33.6438 198.299L51.1485 193.569C61.9906 190.637 62.8775 190.402 63.2678 190.363H63.47C64.2897 190.383 65.0714 190.714 65.6573 191.29C66.2433 191.865 66.59 192.643 66.6275 193.465C66.6914 195.52 65.4071 196.058 63.5871 196.578L63.3742 196.642C60.6602 197.437 58.386 198.067 56.5554 198.548C50.3822 200.211 47.8314 200.902 46.0255 204.04C44.2197 207.178 44.7519 209.027 47.2247 218.006C47.6575 219.549 48.1507 221.33 48.7006 223.385C48.4026 223.385 48.101 223.385 47.8065 223.403C46.9302 223.428 46.0504 223.453 45.1883 223.453Z" fill="url(#paint4_radial_136_9262)"/>
<path d="M70.1822 223.374H63.7961L63.7145 223.079C62.2458 217.629 61.5007 214.886 61.1956 213.554C61.1271 213.284 61.0739 213.011 61.036 212.735C61.9488 212.393 62.8841 212.114 63.8352 211.901L64.8818 211.638C68.9759 210.601 73.2155 209.529 76.9265 205.073C78.7488 202.859 80.0296 200.247 80.6666 197.446C81.3036 194.646 81.279 191.734 80.5949 188.945C79.949 186.279 78.6808 183.804 76.8951 181.727C75.1093 179.649 72.857 178.027 70.3241 176.995C68.3089 176.158 66.6166 175.635 64.3993 175.635C60.8231 175.635 56.1648 176.924 44.9077 180.037C41.7147 180.917 37.9753 181.95 33.5974 183.136C33.4838 178.609 33.3774 173.49 39.0397 171.082L39.2703 170.983C40.4978 170.456 40.7533 170.345 49.9952 170.345C52.1239 170.345 54.7067 170.345 57.8642 170.345C62.8311 170.345 69.2526 170.37 77.5545 170.37C78.7192 170.37 79.8726 170.6 80.9487 171.048C82.0247 171.495 83.0025 172.151 83.8261 172.978C84.6497 173.805 85.303 174.787 85.7488 175.867C86.1945 176.947 86.4239 178.105 86.4239 179.275V214.47C86.4219 216.218 85.9071 217.928 84.9437 219.385C83.9803 220.841 82.6109 221.981 81.0064 222.662C79.5873 223.271 79.1403 223.374 73.8044 223.374H70.1822Z" fill="url(#paint5_radial_136_9262)"/>
<path d="M35.0917 217.604C34.2722 215.659 34.4495 215.844 34.4637 198.94C34.9782 198.801 62.9312 191.196 63.4633 191.196C64.0673 191.219 64.6412 191.467 65.0728 191.892C65.5044 192.317 65.7629 192.888 65.7978 193.494C65.8333 194.844 65.2479 195.232 63.3534 195.78C51.2909 199.264 47.7431 199.36 45.3022 203.617C43.0742 207.499 44.1173 209.707 47.6189 222.573C41.5735 222.733 37.2204 222.662 35.0917 217.604Z" fill="url(#paint6_linear_136_9262)"/>
<path d="M64.4349 222.534C62.9094 216.892 62.2814 214.58 61.9834 213.273C66.89 211.748 72.6658 211.492 77.5582 205.608C85.3633 196.226 82.6315 181.202 70.64 176.229C63.5906 173.284 61.3377 174.73 34.4136 182.057C34.3213 177.006 34.9883 173.729 39.6004 171.752C41.4062 170.976 41.3743 171.221 77.5617 171.221C79.6918 171.225 81.7333 172.077 83.2385 173.59C84.7436 175.103 85.5895 177.154 85.5904 179.293V214.47C85.5914 216.055 85.1263 217.605 84.2535 218.926C83.3807 220.247 82.1389 221.28 80.6838 221.896C78.8035 222.694 78.7999 222.544 64.4349 222.534Z" fill="url(#paint7_linear_136_9262)"/>
<g style="mix-blend-mode:screen" opacity="0.4">
<path d="M36.3014 219.666C39.1148 216.927 41.8786 214.145 44.621 211.321C43.8086 207.634 43.9824 205.925 45.3022 203.624C47.3173 200.112 50.0775 199.428 57.7194 197.348C59.5714 195.325 61.4091 193.288 63.2327 191.239C60.6322 191.82 34.9426 198.804 34.453 198.94C34.453 215.844 34.2615 215.659 35.081 217.604C35.39 218.345 35.8008 219.039 36.3014 219.666Z" fill="url(#paint8_linear_136_9262)"/>
</g>
<g style="mix-blend-mode:screen" opacity="0.4">
<path d="M70.6401 176.215C71.9762 176.766 73.2431 177.473 74.415 178.32C76.2882 176.081 78.1508 173.838 80.0028 171.592C79.214 171.331 78.3886 171.2 77.5583 171.204C41.3709 171.204 41.4028 170.958 39.597 171.734C34.9849 173.711 34.3179 176.988 34.4101 182.039C61.3378 174.73 63.5907 173.284 70.6401 176.215Z" fill="url(#paint9_linear_136_9262)"/>
</g>
<path d="M62.7075 224.706C59.5145 213.202 59.5606 213.533 59.5145 212.678C59.3903 210.47 63.7718 210.851 69.5157 208.528C80.8189 204.19 83.5685 186.655 71.7224 179.588C64.3927 175.342 62.931 177.07 32.4413 184.906L32.3101 184.849V184.749C62.5869 176.069 64.7226 174.698 72.0985 178.933C84.2248 186.003 81.9365 204.528 69.725 209.056C67.1564 210.06 64.6268 210.541 62.3563 211.153C59.3335 211.969 59.6245 211.933 60.5611 215.616C60.6037 215.77 61.4906 219.264 62.8636 224.671L62.7075 224.706Z" fill="url(#paint10_linear_136_9262)"/>
<path d="M50.9571 201.618C44.1383 204.945 46.1889 208.318 50.5456 224.307L50.4143 224.689H50.1837C46.9907 212.332 43.4429 206.145 48.8391 202.605C49.512 202.209 50.2213 201.878 50.9571 201.618Z" fill="url(#paint11_linear_136_9262)"/>
<path style="mix-blend-mode:screen" d="M69.4656 176.618C69.0434 177.088 71.2112 179.752 74.3155 182.569C77.4198 185.387 80.2722 187.285 80.7015 186.819C81.1308 186.352 78.956 183.688 75.8588 180.867C72.7615 178.046 69.8914 176.147 69.4656 176.618Z" fill="url(#paint12_radial_136_9262)"/>
<path style="mix-blend-mode:screen" d="M46.1427 203.567C45.7879 203.567 45.5857 205.622 45.6567 208.144C45.7276 210.665 46.0647 212.689 46.4088 212.689C46.7529 212.689 46.9694 210.63 46.8984 208.115C46.8274 205.601 46.4762 203.552 46.1427 203.567Z" fill="url(#paint13_radial_136_9262)"/>
<g opacity="0.4">
<g style="mix-blend-mode:multiply" opacity="0.02">
<path d="M95.0201 225.262C94.9988 226.665 79.2928 227.542 59.9431 227.225C40.5935 226.908 24.9265 225.515 24.9478 224.115C24.9691 222.715 40.6751 221.835 60.0247 222.152C79.3744 222.469 95.0449 223.862 95.0201 225.262Z" fill="#909295"/>
</g>
<g style="mix-blend-mode:multiply" opacity="0.04">
<path d="M94.5733 225.255C94.552 226.64 79.0482 227.506 59.9434 227.193C40.8386 226.879 25.3738 225.504 25.395 224.122C25.4163 222.74 40.9237 221.871 60.025 222.185C79.1263 222.498 94.5982 223.873 94.5733 225.255Z" fill="#8E8F92"/>
</g>
<g style="mix-blend-mode:multiply" opacity="0.06">
<path d="M94.1261 225.248C94.1048 226.612 78.7996 227.47 59.9431 227.16C41.0867 226.851 25.8205 225.494 25.8418 224.129C25.8631 222.765 41.1683 221.907 60.0247 222.217C78.8812 222.526 94.1509 223.884 94.1261 225.248Z" fill="#8B8D90"/>
</g>
<g style="mix-blend-mode:multiply" opacity="0.08">
<path d="M93.6793 225.241C93.658 226.587 78.5551 227.435 59.9469 227.128C41.3388 226.822 26.2678 225.483 26.2891 224.136C26.3104 222.79 41.4168 221.946 60.0214 222.249C78.626 222.551 93.7006 223.894 93.6793 225.241Z" fill="#898B8E"/>
</g>
<g style="mix-blend-mode:multiply" opacity="0.1">
<path d="M93.232 225.234C93.2107 226.562 78.3065 227.396 59.9467 227.096C41.5869 226.797 26.7181 225.472 26.7359 224.144C26.7536 222.815 41.6614 221.982 60.0212 222.281C78.381 222.58 93.2533 223.905 93.232 225.234Z" fill="#87898B"/>
</g>
<g style="mix-blend-mode:multiply" opacity="0.12">
<path d="M92.7857 225.226C92.7644 226.537 78.0589 227.363 59.9474 227.064C41.836 226.765 27.1659 225.461 27.1836 224.151C27.2013 222.84 41.9105 222.014 60.0219 222.313C78.1334 222.612 92.807 223.916 92.7857 225.226Z" fill="#858689"/>
</g>
<g style="mix-blend-mode:multiply" opacity="0.14">
<path d="M92.3343 225.219C92.3166 226.512 77.8132 227.324 59.9466 227.029C42.0799 226.733 27.612 225.451 27.6333 224.158C27.6546 222.865 42.158 222.053 60.0211 222.348C77.8842 222.644 92.3591 223.926 92.3343 225.219Z" fill="#838487"/>
</g>
<g style="mix-blend-mode:multiply" opacity="0.16">
<path d="M91.8881 225.212C91.8704 226.487 77.5657 227.289 59.958 226.993C42.3504 226.697 28.0705 225.437 28.0918 224.161C28.1131 222.886 42.4142 222.088 60.0219 222.38C77.6296 222.673 91.9094 223.937 91.8881 225.212Z" fill="#818284"/>
</g>
<g style="mix-blend-mode:multiply" opacity="0.18">
<path d="M91.4403 225.205C91.419 226.462 77.3201 227.25 59.9501 226.965C42.5801 226.68 28.5096 225.429 28.5274 224.172C28.5451 222.915 42.6511 222.128 60.0211 222.412C77.391 222.697 91.4615 223.948 91.4403 225.205Z" fill="#7E7F82"/>
</g>
<g style="mix-blend-mode:multiply" opacity="0.2">
<path d="M90.994 225.198C90.9727 226.437 77.0725 227.214 59.9508 226.932C42.8292 226.651 28.9574 225.419 28.9751 224.179C28.9929 222.94 42.8966 222.163 60.0218 222.445C77.147 222.726 91.0153 223.958 90.994 225.198Z" fill="#7C7D80"/>
</g>
<g style="mix-blend-mode:multiply" opacity="0.22">
<path d="M90.5467 225.191C90.5254 226.412 76.8274 227.178 59.9506 226.9C43.0738 226.623 29.4042 225.408 29.4219 224.19C29.4396 222.972 43.1447 222.199 60.0216 222.477C76.8984 222.754 90.568 223.969 90.5467 225.191Z" fill="#7A7B7D"/>
</g>
<g style="mix-blend-mode:multiply" opacity="0.24">
<path d="M90.1139 225.184C90.0926 226.388 76.5932 227.143 59.9577 226.868C43.3221 226.594 29.8583 225.397 29.876 224.197C29.8937 222.997 43.3966 222.238 60.0322 222.509C76.6677 222.779 90.1139 223.98 90.1139 225.184Z" fill="#78787B"/>
</g>
<g style="mix-blend-mode:multiply" opacity="0.25">
<path d="M89.6491 225.177C89.6314 226.359 76.3343 227.103 59.9506 226.836C43.5669 226.569 30.3017 225.387 30.3159 224.204C30.3301 223.022 43.6379 222.274 60.018 222.541C76.3981 222.808 89.6704 223.99 89.6491 225.177Z" fill="#767679"/>
</g>
<g style="mix-blend-mode:multiply" opacity="0.27">
<path d="M89.2022 225.155C89.1845 226.32 76.0754 227.054 59.9507 226.79C43.826 226.526 30.7489 225.365 30.7666 224.197C30.7844 223.029 43.8934 222.295 60.0181 222.559C76.1428 222.822 89.2235 224.001 89.2022 225.155Z" fill="#747476"/>
</g>
<g style="mix-blend-mode:multiply" opacity="0.29">
<path d="M88.7548 225.155C88.7371 226.306 75.8373 227.029 59.9539 226.769C44.0704 226.509 31.1955 225.344 31.2168 224.215C31.2381 223.086 44.1343 222.341 60.0213 222.601C75.9083 222.861 88.7761 224.012 88.7548 225.155Z" fill="#717274"/>
</g>
<g style="mix-blend-mode:multiply" opacity="0.31">
<path d="M88.3082 225.155C88.2904 226.288 75.5929 227 59.9543 226.744C44.3156 226.487 31.6429 225.358 31.6607 224.229C31.6784 223.1 44.3795 222.388 60.0181 222.64C75.6568 222.893 88.3401 224.022 88.3082 225.155Z" fill="#6F6F72"/>
</g>
<g style="mix-blend-mode:multiply" opacity="0.33">
<path d="M87.8609 225.155C87.8609 226.27 75.3443 226.968 59.954 226.719C44.5637 226.469 32.0897 225.355 32.1074 224.243C32.1252 223.132 44.624 222.43 60.0179 222.683C75.4117 222.936 87.8786 224.033 87.8609 225.155Z" fill="#6D6D6F"/>
</g>
<g style="mix-blend-mode:multiply" opacity="0.35">
<path d="M87.4141 225.155C87.3964 226.252 75.0998 226.936 59.9543 226.69C44.8088 226.445 32.537 225.351 32.5547 224.258C32.5724 223.164 44.8726 222.477 60.0181 222.722C75.1636 222.968 87.4319 224.044 87.4141 225.155Z" fill="#6B6B6D"/>
</g>
<g style="mix-blend-mode:multiply" opacity="0.37">
<path d="M86.9637 225.13C86.9637 226.199 74.8515 226.886 59.9544 226.64C45.0572 226.395 32.9912 225.323 32.9912 224.247C32.9912 223.171 45.1069 222.491 60.0076 222.737C74.9083 222.982 86.985 224.055 86.9637 225.13Z" fill="#69686B"/>
</g>
<g style="mix-blend-mode:multiply" opacity="0.39">
<path d="M86.5165 225.123C86.5165 226.192 74.6066 226.851 59.9578 226.608C45.309 226.366 33.4346 225.312 33.4487 224.254C33.4629 223.196 45.3658 222.53 60.0181 222.769C74.6705 223.007 86.5343 224.065 86.5165 225.123Z" fill="#666668"/>
</g>
<g style="mix-blend-mode:multiply" opacity="0.41">
<path d="M86.0693 225.116C86.0693 226.16 74.3616 226.811 59.9576 226.576C45.5536 226.341 33.8813 225.301 33.8955 224.261C33.9097 223.221 45.6032 222.566 60.0179 222.801C74.4325 223.036 86.087 224.087 86.0693 225.116Z" fill="#646466"/>
</g>
<g style="mix-blend-mode:multiply" opacity="0.43">
<path d="M85.6224 225.109C85.6224 226.135 74.1098 226.776 59.9577 226.534C45.8056 226.291 34.3285 225.28 34.3462 224.258C34.364 223.235 45.8588 222.591 60.0145 222.833C74.1701 223.075 85.6401 224.087 85.6224 225.109Z" fill="#626264"/>
</g>
<g style="mix-blend-mode:multiply" opacity="0.45">
<path d="M85.1751 225.102C85.1574 226.11 73.8648 226.74 59.9575 226.526C46.0501 226.313 34.7682 225.294 34.793 224.29C34.8178 223.285 46.1069 222.651 60.0142 222.865C73.9215 223.079 85.1929 224.087 85.1751 225.102Z" fill="#605F61"/>
</g>
<g style="mix-blend-mode:multiply" opacity="0.47">
<path d="M84.7283 225.095C84.7106 226.081 73.6167 226.705 59.9577 226.48C46.2987 226.256 35.2225 225.269 35.2403 224.282C35.258 223.296 46.3519 222.676 60.0145 222.897C73.677 223.118 84.7425 224.104 84.7283 225.095Z" fill="#5E5D5F"/>
</g>
<g style="mix-blend-mode:multiply" opacity="0.49">
<path d="M84.2775 225.087C84.2775 226.056 73.3716 226.665 59.9574 226.448C46.5433 226.231 35.6728 225.258 35.687 224.29C35.7012 223.321 46.6 222.712 60.0142 222.929C73.4284 223.146 84.2952 224.115 84.2775 225.087Z" fill="#5C5B5D"/>
</g>
<g style="mix-blend-mode:multiply" opacity="0.51">
<path d="M83.8307 225.08C83.8307 226.031 73.1235 226.63 59.9612 226.416C46.7989 226.202 36.1201 225.251 36.1343 224.279C36.1485 223.307 46.8486 222.729 60.0144 222.947C73.1803 223.164 83.8485 224.126 83.8307 225.08Z" fill="#59585A"/>
</g>
<g style="mix-blend-mode:multiply" opacity="0.53">
<path d="M83.3734 225.073C83.3734 226.006 72.8684 226.594 59.9581 226.384C47.0477 226.174 36.5639 225.241 36.5781 224.304C36.5923 223.367 47.0902 222.783 60.0113 222.997C72.9323 223.21 83.4018 224.136 83.3734 225.073Z" fill="#575658"/>
</g>
<g style="mix-blend-mode:multiply" opacity="0.55">
<path d="M82.9362 225.066C82.9362 225.982 72.6476 226.559 59.9607 226.348C47.2739 226.138 37.0137 225.23 37.0278 224.315C37.042 223.399 47.3413 222.819 60.014 223.029C72.6867 223.239 82.9504 224.147 82.9362 225.066Z" fill="#555456"/>
</g>
<g style="mix-blend-mode:multiply" opacity="0.57">
<path d="M82.4893 225.055C82.4893 225.957 72.3852 226.519 59.9609 226.316C47.5365 226.113 37.4643 225.219 37.4785 224.322C37.4927 223.424 47.5862 222.858 60.0141 223.061C72.442 223.264 82.5035 224.158 82.4893 225.055Z" fill="#535153"/>
</g>
<g style="mix-blend-mode:multiply" opacity="0.59">
<path d="M82.0425 225.048C82.0425 225.932 72.1371 226.473 59.9611 226.284C47.7851 226.095 37.9116 225.216 37.9258 224.329C37.94 223.442 47.8348 222.904 60.0143 223.093C72.1939 223.282 82.0567 224.168 82.0425 225.048Z" fill="#514F51"/>
</g>
<g style="mix-blend-mode:multiply" opacity="0.61">
<path d="M81.5994 225.041C81.5994 225.907 71.8962 226.448 59.9579 226.252C48.0196 226.056 38.3555 225.184 38.3696 224.336C38.3838 223.488 48.0764 222.929 60.0111 223.125C71.9459 223.321 81.5994 224.179 81.5994 225.041Z" fill="#4F4D4F"/>
</g>
<g style="mix-blend-mode:multiply" opacity="0.63">
<path d="M81.1449 225.034C81.1449 225.882 71.644 226.412 59.9646 226.22C48.2853 226.028 38.8056 225.187 38.8198 224.343C38.834 223.499 48.3279 222.965 60.0108 223.157C71.6936 223.349 81.1591 224.19 81.1449 225.034Z" fill="#4C4B4C"/>
</g>
<g style="mix-blend-mode:multiply" opacity="0.65">
<path d="M80.6982 225.027C80.6982 225.857 71.3959 226.373 59.9649 226.188C48.5339 226.003 39.2529 225.177 39.2671 224.35C39.2813 223.524 48.5765 223.004 60.011 223.189C71.4455 223.374 80.7123 224.201 80.6982 225.027Z" fill="#4A484A"/>
</g>
<g style="mix-blend-mode:multiply" opacity="0.67">
<path d="M80.2514 225.02C80.2514 225.832 71.1513 226.338 59.9651 226.156C48.779 225.974 39.7037 225.166 39.7144 224.357C39.725 223.549 48.8215 223.039 60.0112 223.221C71.201 223.403 80.262 224.211 80.2514 225.02Z" fill="#484648"/>
</g>
<g style="mix-blend-mode:multiply" opacity="0.69">
<path d="M79.8041 225.013C79.8041 225.803 70.9027 226.302 59.9649 226.124C49.0271 225.946 40.1505 225.155 40.1611 224.364C40.1718 223.574 49.0696 223.075 60.011 223.253C70.9524 223.431 79.8254 224.222 79.8041 225.013Z" fill="#464445"/>
</g>
<g style="mix-blend-mode:multiply" opacity="0.71">
<path d="M79.3537 225.006C79.3537 225.778 70.658 226.266 59.965 226.092C49.272 225.917 40.5976 225.144 40.6118 224.372C40.626 223.599 49.3146 223.111 60.0111 223.303C70.7077 223.495 79.3679 224.233 79.3537 225.006Z" fill="#444143"/>
</g>
<g style="mix-blend-mode:multiply" opacity="0.73">
<path d="M78.9064 224.998C78.9064 225.754 70.3917 226.231 59.9683 226.067C49.5449 225.903 41.0444 225.141 41.0586 224.386C41.0728 223.631 49.5733 223.157 60.0109 223.317C70.4485 223.477 78.9206 224.243 78.9064 224.998Z" fill="#413F41"/>
</g>
<g style="mix-blend-mode:multiply" opacity="0.75">
<path d="M78.4592 224.991C78.4592 225.729 70.1644 226.192 59.9681 226.024C49.7718 225.857 41.4912 225.123 41.5196 224.386C41.548 223.648 49.8214 223.185 60.0249 223.353C70.2283 223.52 78.4698 224.254 78.4592 224.991Z" fill="#3F3D3E"/>
</g>
<g style="mix-blend-mode:multiply" opacity="0.76">
<path d="M78.0124 224.984C78.0124 225.697 69.9163 226.156 59.9683 225.992C50.0203 225.828 41.942 225.112 41.9526 224.393C41.9633 223.673 50.0558 223.221 60.0109 223.385C69.966 223.549 78.023 224.265 78.0124 224.984Z" fill="#3D3B3C"/>
</g>
<g style="mix-blend-mode:multiply" opacity="0.78">
<path d="M77.5656 224.977C77.5656 225.689 69.6682 226.12 59.9686 225.96C50.2689 225.8 42.3893 225.102 42.3999 224.4C42.4106 223.698 50.3044 223.257 60.0111 223.417C69.7179 223.577 77.5762 224.275 77.5656 224.977Z" fill="#3B383A"/>
</g>
<g style="mix-blend-mode:multiply" opacity="0.8">
<path d="M77.1183 224.97C77.1183 225.654 69.4232 226.085 59.9683 225.928C50.5135 225.771 42.836 225.091 42.8467 224.407C42.8573 223.723 50.5489 223.296 60.0073 223.449C69.4657 223.602 77.1289 224.286 77.1183 224.97Z" fill="#393637"/>
</g>
<g style="mix-blend-mode:multiply" opacity="0.82">
<path d="M76.6675 224.963C76.6675 225.629 69.1746 226.031 59.9681 225.896C50.7615 225.761 43.2935 225.08 43.2935 224.414C43.2935 223.748 50.797 223.346 60.0071 223.481C69.2171 223.616 76.6781 224.297 76.6675 224.963Z" fill="#373435"/>
</g>
<g style="mix-blend-mode:multiply" opacity="0.84">
<path d="M76.2207 224.952C76.2207 225.604 68.93 226.021 59.9719 225.864C51.0137 225.707 43.7336 225.07 43.7407 224.421C43.7478 223.773 51.0421 223.353 60.0073 223.513C68.9726 223.673 76.2314 224.307 76.2207 224.952Z" fill="#343133"/>
</g>
<g style="mix-blend-mode:multiply" opacity="0.86">
<path d="M75.7738 224.945C75.7738 225.579 68.6782 225.974 59.972 225.832C51.2657 225.689 44.1808 225.059 44.1914 224.432C44.2021 223.805 51.287 223.403 60.0075 223.545C68.7279 223.688 75.7845 224.318 75.7738 224.945Z" fill="#322F30"/>
</g>
<g style="mix-blend-mode:multiply" opacity="0.88">
<path d="M75.3266 224.938C75.3266 225.551 68.4368 225.939 59.9717 225.8C51.5067 225.661 44.6276 225.048 44.6382 224.439C44.6488 223.83 51.5351 223.442 60.0072 223.581C68.4793 223.72 75.3372 224.329 75.3266 224.938Z" fill="#302D2E"/>
</g>
<g style="mix-blend-mode:multiply" opacity="0.9">
<path d="M74.88 224.931C74.88 225.526 68.1889 225.9 59.9793 225.768C51.7697 225.636 45.0786 225.038 45.0786 224.446C45.0786 223.855 51.7768 223.478 60.0006 223.613C68.2244 223.748 74.8871 224.339 74.88 224.931Z" fill="#2E2A2C"/>
</g>
<g style="mix-blend-mode:multiply" opacity="0.92">
<path d="M74.4325 224.924C74.4325 225.501 67.9436 225.864 59.9717 225.736C51.9999 225.607 45.5216 225.023 45.5322 224.453C45.5429 223.884 52.0318 223.513 60.0072 223.645C67.9826 223.777 74.4396 224.35 74.4325 224.924Z" fill="#2C2829"/>
</g>
<g style="mix-blend-mode:multiply" opacity="0.94">
<path d="M73.9817 224.916C73.9817 225.476 67.695 225.828 59.975 225.704C52.255 225.579 45.9719 225.016 45.979 224.461C45.9861 223.905 52.2763 223.549 60.007 223.677C67.7376 223.805 73.9923 224.361 73.9817 224.916Z" fill="#2A2627"/>
</g>
<g style="mix-blend-mode:multiply" opacity="0.96">
<path d="M73.5349 224.909C73.5349 225.451 67.4469 225.793 59.9753 225.668C52.5036 225.543 46.4192 225.006 46.4263 224.468C46.4334 223.93 52.5249 223.588 60.0072 223.709C67.4895 223.83 73.5456 224.368 73.5349 224.909Z" fill="#272425"/>
</g>
<g style="mix-blend-mode:multiply" opacity="0.98">
<path d="M73.0848 224.902C73.0848 225.426 67.199 225.754 59.958 225.636C52.717 225.518 46.8312 224.995 46.856 224.475C46.8809 223.955 52.7525 223.624 59.9828 223.741C67.2132 223.859 73.0848 224.379 73.0848 224.902Z" fill="#252122"/>
</g>
<g style="mix-blend-mode:multiply">
<path d="M72.6407 224.895C72.6407 225.401 66.9643 225.718 59.9751 225.607C52.986 225.497 47.3237 224.991 47.3237 224.485C47.3237 223.98 53.0179 223.663 60.0035 223.773C66.9891 223.884 72.6514 224.389 72.6407 224.895Z" fill="#231F20"/>
</g>
</g>
<path d="M124.471 193.711C124.471 199.962 120.146 205.038 112.107 205.038H104.5V212.689H97.4048V182.342H112.11C120.146 182.342 124.471 187.463 124.471 193.711ZM117.336 193.711C117.336 191.022 115.208 188.81 112.064 188.81H104.5V198.573H112.064C115.218 198.573 117.336 196.404 117.336 193.711Z" fill="url(#paint14_linear_136_9262)"/>
<path d="M128.703 200.005V194.755H141.83V200.005H128.703Z" fill="url(#paint15_linear_136_9262)"/>
<path d="M174.65 193.711C174.65 199.962 170.329 205.038 162.29 205.038H154.683V212.689H147.588V182.342H162.286C170.329 182.342 174.65 187.463 174.65 193.711ZM167.519 193.711C167.519 191.022 165.391 188.81 162.247 188.81H154.683V198.573H162.251C165.401 198.573 167.519 196.404 167.519 193.711Z" fill="url(#paint16_linear_136_9262)"/>
<path d="M207.371 212.689H200.325L197.821 206.395H184.162L181.646 212.689H174.551L186.652 182.352H195.298L207.371 212.689ZM195.355 200.222L190.991 189.241L186.581 200.222H195.355Z" fill="url(#paint17_linear_136_9262)"/>
<path d="M237.499 182.342L225.181 200.614V212.689H218.086V200.614L205.807 182.342H213.683L221.637 194.188L229.634 182.342H237.499Z" fill="url(#paint18_linear_136_9262)"/>
<path d="M23.3218 245.081L25.4673 249.493L27.6128 245.081H29.3774L26.2671 250.921V254.324H24.6611V250.921L21.5508 245.081H23.3218ZM29.5234 250.966V250.82C29.5234 250.325 29.5954 249.865 29.7393 249.442C29.8831 249.015 30.0905 248.645 30.3613 248.331C30.6364 248.014 30.9707 247.769 31.3643 247.595C31.762 247.417 32.2106 247.329 32.71 247.329C33.2135 247.329 33.6621 247.417 34.0557 247.595C34.4535 247.769 34.7899 248.014 35.0649 248.331C35.34 248.645 35.5495 249.015 35.6934 249.442C35.8372 249.865 35.9092 250.325 35.9092 250.82V250.966C35.9092 251.461 35.8372 251.92 35.6934 252.343C35.5495 252.766 35.34 253.137 35.0649 253.454C34.7899 253.767 34.4556 254.013 34.062 254.19C33.6685 254.364 33.222 254.451 32.7227 254.451C32.2191 254.451 31.7684 254.364 31.3706 254.19C30.9771 254.013 30.6427 253.767 30.3677 253.454C30.0926 253.137 29.8831 252.766 29.7393 252.343C29.5954 251.92 29.5234 251.461 29.5234 250.966ZM31.0532 250.82V250.966C31.0532 251.275 31.085 251.567 31.1484 251.842C31.2119 252.117 31.3114 252.358 31.4468 252.565C31.5822 252.773 31.7557 252.936 31.9673 253.054C32.1789 253.173 32.4307 253.232 32.7227 253.232C33.0062 253.232 33.2516 253.173 33.459 253.054C33.6706 252.936 33.8441 252.773 33.9795 252.565C34.1149 252.358 34.2144 252.117 34.2778 251.842C34.3455 251.567 34.3794 251.275 34.3794 250.966V250.82C34.3794 250.515 34.3455 250.227 34.2778 249.956C34.2144 249.681 34.1128 249.438 33.9731 249.226C33.8377 249.015 33.6642 248.85 33.4526 248.731C33.2453 248.609 32.9977 248.547 32.71 248.547C32.4222 248.547 32.1725 248.609 31.9609 248.731C31.7536 248.85 31.5822 249.015 31.4468 249.226C31.3114 249.438 31.2119 249.681 31.1484 249.956C31.085 250.227 31.0532 250.515 31.0532 250.82ZM41.3237 252.705V247.455H42.8599V254.324H41.4126L41.3237 252.705ZM41.5396 251.277L42.0537 251.264C42.0537 251.725 42.0029 252.151 41.9014 252.54C41.7998 252.925 41.6432 253.261 41.4316 253.549C41.2201 253.833 40.9492 254.055 40.6191 254.216C40.2891 254.372 39.8934 254.451 39.4321 254.451C39.0978 254.451 38.791 254.402 38.5117 254.305C38.2324 254.207 37.9912 254.057 37.7881 253.854C37.5892 253.651 37.4347 253.386 37.3247 253.06C37.2147 252.735 37.1597 252.345 37.1597 251.892V247.455H38.6895V251.905C38.6895 252.155 38.7191 252.364 38.7783 252.534C38.8376 252.699 38.918 252.832 39.0195 252.934C39.1211 253.035 39.2396 253.107 39.375 253.149C39.5104 253.192 39.6543 253.213 39.8066 253.213C40.2425 253.213 40.5853 253.128 40.835 252.959C41.0889 252.785 41.2687 252.553 41.3745 252.261C41.4845 251.969 41.5396 251.641 41.5396 251.277ZM45.9639 248.763V254.324H44.4341V247.455H45.894L45.9639 248.763ZM48.0649 247.411L48.0522 248.833C47.9591 248.816 47.8576 248.803 47.7476 248.795C47.6418 248.786 47.536 248.782 47.4302 248.782C47.1678 248.782 46.9372 248.82 46.7383 248.896C46.5394 248.968 46.3722 249.074 46.2368 249.214C46.1056 249.349 46.0041 249.514 45.9321 249.709C45.8602 249.904 45.8179 250.121 45.8052 250.363L45.4561 250.388C45.4561 249.956 45.4984 249.557 45.583 249.188C45.6676 248.82 45.7946 248.496 45.9639 248.217C46.1374 247.938 46.3532 247.72 46.6113 247.563C46.8737 247.407 47.1763 247.329 47.519 247.329C47.6121 247.329 47.7116 247.337 47.8174 247.354C47.9274 247.371 48.0099 247.39 48.0649 247.411ZM55.8789 250.147H53.5239L53.5112 248.985H55.5679C55.9149 248.985 56.209 248.934 56.4502 248.833C56.6956 248.727 56.8818 248.577 57.0088 248.382C57.1357 248.183 57.1992 247.944 57.1992 247.665C57.1992 247.356 57.14 247.104 57.0215 246.91C56.903 246.715 56.721 246.573 56.4756 246.484C56.2344 246.395 55.9255 246.351 55.5488 246.351H54.0063V254.324H52.4131V245.081H55.5488C56.0566 245.081 56.5094 245.13 56.9072 245.227C57.3092 245.325 57.6499 245.477 57.9292 245.684C58.2127 245.888 58.4264 246.146 58.5703 246.459C58.7184 246.772 58.7925 247.144 58.7925 247.576C58.7925 247.957 58.7015 248.306 58.5195 248.623C58.3376 248.937 58.0688 249.193 57.7134 249.392C57.3579 249.59 56.9157 249.709 56.3867 249.747L55.8789 250.147ZM55.8091 254.324H53.0225L53.7397 253.06H55.8091C56.1688 253.06 56.4692 253.001 56.7104 252.883C56.9517 252.76 57.1315 252.593 57.25 252.381C57.3727 252.165 57.4341 251.914 57.4341 251.626C57.4341 251.325 57.3812 251.065 57.2754 250.845C57.1696 250.621 57.0024 250.449 56.7739 250.331C56.5454 250.208 56.2471 250.147 55.8789 250.147H54.0889L54.1016 248.985H56.4312L56.793 249.423C57.3008 249.44 57.7176 249.552 58.0435 249.76C58.3735 249.967 58.619 250.236 58.7798 250.566C58.9406 250.896 59.021 251.251 59.021 251.632C59.021 252.22 58.8919 252.713 58.6338 253.111C58.3799 253.509 58.0138 253.812 57.5356 254.019C57.0575 254.222 56.4819 254.324 55.8091 254.324ZM63.5024 254.451C62.9946 254.451 62.5355 254.368 62.125 254.203C61.7188 254.034 61.3717 253.799 61.084 253.498C60.8005 253.198 60.5825 252.845 60.4302 252.438C60.2778 252.032 60.2017 251.594 60.2017 251.124V250.871C60.2017 250.333 60.2799 249.846 60.4365 249.411C60.5931 248.975 60.811 248.602 61.0903 248.293C61.3696 247.98 61.6997 247.741 62.0806 247.576C62.4614 247.411 62.874 247.329 63.3184 247.329C63.8092 247.329 64.2388 247.411 64.6069 247.576C64.9751 247.741 65.2798 247.974 65.521 248.274C65.7664 248.571 65.9484 248.924 66.0669 249.334C66.1896 249.745 66.251 250.198 66.251 250.693V251.347H60.9443V250.248H64.7402V250.128C64.7318 249.853 64.6768 249.595 64.5752 249.353C64.4779 249.112 64.3276 248.918 64.1245 248.769C63.9214 248.621 63.6506 248.547 63.312 248.547C63.0581 248.547 62.8317 248.602 62.6328 248.712C62.4382 248.818 62.2752 248.973 62.144 249.176C62.0129 249.379 61.9113 249.624 61.8394 249.912C61.7716 250.196 61.7378 250.515 61.7378 250.871V251.124C61.7378 251.425 61.778 251.704 61.8584 251.962C61.943 252.216 62.0658 252.438 62.2266 252.629C62.3874 252.819 62.582 252.969 62.8105 253.079C63.0391 253.185 63.2993 253.238 63.5913 253.238C63.9595 253.238 64.2874 253.164 64.5752 253.016C64.863 252.868 65.1126 252.658 65.3242 252.388L66.1304 253.168C65.9823 253.384 65.7897 253.592 65.5527 253.79C65.3158 253.985 65.0259 254.144 64.6831 254.267C64.3446 254.389 63.951 254.451 63.5024 254.451ZM71.2974 252.464C71.2974 252.311 71.2593 252.174 71.1831 252.051C71.1069 251.924 70.9609 251.81 70.7451 251.708C70.5335 251.607 70.2204 251.514 69.8057 251.429C69.4417 251.349 69.1074 251.253 68.8027 251.143C68.5023 251.029 68.2441 250.892 68.0283 250.731C67.8125 250.57 67.6453 250.38 67.5269 250.16C67.4084 249.94 67.3491 249.686 67.3491 249.398C67.3491 249.119 67.4105 248.854 67.5332 248.604C67.6559 248.355 67.8315 248.135 68.0601 247.944C68.2886 247.754 68.5658 247.604 68.8916 247.494C69.2217 247.384 69.5898 247.329 69.9961 247.329C70.5716 247.329 71.0646 247.426 71.4751 247.621C71.8898 247.811 72.2072 248.071 72.4272 248.401C72.6473 248.727 72.7573 249.095 72.7573 249.506H71.2275C71.2275 249.324 71.181 249.155 71.0879 248.998C70.999 248.837 70.8636 248.708 70.6816 248.611C70.4997 248.509 70.2712 248.458 69.9961 248.458C69.7337 248.458 69.5158 248.501 69.3423 248.585C69.173 248.666 69.0461 248.772 68.9614 248.903C68.881 249.034 68.8408 249.178 68.8408 249.334C68.8408 249.449 68.862 249.552 68.9043 249.645C68.9508 249.734 69.027 249.817 69.1328 249.893C69.2386 249.965 69.3825 250.033 69.5645 250.096C69.7507 250.16 69.9834 250.221 70.2627 250.28C70.7874 250.39 71.2381 250.532 71.6147 250.705C71.9956 250.875 72.2876 251.095 72.4907 251.366C72.6938 251.632 72.7954 251.971 72.7954 252.381C72.7954 252.686 72.7298 252.965 72.5986 253.219C72.4717 253.469 72.2855 253.687 72.04 253.873C71.7946 254.055 71.5005 254.197 71.1577 254.298C70.8192 254.4 70.4383 254.451 70.0151 254.451C69.3931 254.451 68.8662 254.341 68.4346 254.121C68.0029 253.896 67.675 253.611 67.4507 253.264C67.2306 252.912 67.1206 252.548 67.1206 252.172H68.5996C68.6165 252.455 68.6948 252.682 68.8345 252.851C68.9784 253.016 69.1561 253.137 69.3677 253.213C69.5835 253.285 69.8057 253.321 70.0342 253.321C70.3092 253.321 70.5399 253.285 70.7261 253.213C70.9123 253.137 71.054 253.035 71.1514 252.908C71.2487 252.777 71.2974 252.629 71.2974 252.464ZM77.2832 247.455V248.573H73.4111V247.455H77.2832ZM74.5283 245.773H76.0581V252.426C76.0581 252.637 76.0877 252.8 76.147 252.914C76.2104 253.024 76.2972 253.099 76.4072 253.137C76.5173 253.175 76.6463 253.194 76.7944 253.194C76.9002 253.194 77.0018 253.187 77.0991 253.175C77.1965 253.162 77.2747 253.149 77.334 253.137L77.3403 254.305C77.2134 254.343 77.0653 254.377 76.896 254.406C76.731 254.436 76.5405 254.451 76.3247 254.451C75.9735 254.451 75.6624 254.389 75.3916 254.267C75.1208 254.14 74.9092 253.934 74.7568 253.651C74.6045 253.367 74.5283 252.991 74.5283 252.521V245.773ZM82.501 245.081H83.9229L86.5952 252.21L89.2612 245.081H90.6831L87.1538 254.324H86.0239L82.501 245.081ZM81.8535 245.081H83.2056L83.4404 251.251V254.324H81.8535V245.081ZM89.9785 245.081H91.3369V254.324H89.7437V251.251L89.9785 245.081ZM92.7842 250.966V250.82C92.7842 250.325 92.8561 249.865 93 249.442C93.1439 249.015 93.3512 248.645 93.6221 248.331C93.8971 248.014 94.2314 247.769 94.625 247.595C95.0228 247.417 95.4714 247.329 95.9707 247.329C96.4743 247.329 96.9229 247.417 97.3164 247.595C97.7142 247.769 98.0506 248.014 98.3257 248.331C98.6007 248.645 98.8102 249.015 98.9541 249.442C99.098 249.865 99.1699 250.325 99.1699 250.82V250.966C99.1699 251.461 99.098 251.92 98.9541 252.343C98.8102 252.766 98.6007 253.137 98.3257 253.454C98.0506 253.767 97.7163 254.013 97.3228 254.19C96.9292 254.364 96.4827 254.451 95.9834 254.451C95.4798 254.451 95.0291 254.364 94.6313 254.19C94.2378 254.013 93.9035 253.767 93.6284 253.454C93.3534 253.137 93.1439 252.766 93 252.343C92.8561 251.92 92.7842 251.461 92.7842 250.966ZM94.314 250.82V250.966C94.314 251.275 94.3457 251.567 94.4092 251.842C94.4727 252.117 94.5721 252.358 94.7075 252.565C94.8429 252.773 95.0164 252.936 95.228 253.054C95.4396 253.173 95.6914 253.232 95.9834 253.232C96.2669 253.232 96.5124 253.173 96.7197 253.054C96.9313 252.936 97.1048 252.773 97.2402 252.565C97.3757 252.358 97.4751 252.117 97.5386 251.842C97.6063 251.567 97.6401 251.275 97.6401 250.966V250.82C97.6401 250.515 97.6063 250.227 97.5386 249.956C97.4751 249.681 97.3735 249.438 97.2339 249.226C97.0985 249.015 96.925 248.85 96.7134 248.731C96.506 248.609 96.2585 248.547 95.9707 248.547C95.6829 248.547 95.4333 248.609 95.2217 248.731C95.0143 248.85 94.8429 249.015 94.7075 249.226C94.5721 249.438 94.4727 249.681 94.4092 249.956C94.3457 250.227 94.314 250.515 94.314 250.82ZM101.969 248.922V254.324H100.439V247.455H101.88L101.969 248.922ZM101.696 250.636L101.201 250.629C101.205 250.143 101.273 249.696 101.404 249.29C101.54 248.884 101.726 248.535 101.963 248.243C102.204 247.951 102.492 247.726 102.826 247.57C103.16 247.409 103.533 247.329 103.943 247.329C104.273 247.329 104.572 247.375 104.838 247.468C105.109 247.557 105.34 247.703 105.53 247.906C105.725 248.109 105.873 248.374 105.975 248.7C106.076 249.021 106.127 249.417 106.127 249.887V254.324H104.591V249.88C104.591 249.55 104.542 249.29 104.445 249.1C104.352 248.905 104.214 248.767 104.032 248.687C103.854 248.602 103.632 248.56 103.366 248.56C103.103 248.56 102.868 248.615 102.661 248.725C102.454 248.835 102.278 248.985 102.134 249.176C101.995 249.366 101.887 249.586 101.811 249.836C101.734 250.086 101.696 250.352 101.696 250.636ZM110.716 254.451C110.208 254.451 109.749 254.368 109.339 254.203C108.933 254.034 108.586 253.799 108.298 253.498C108.014 253.198 107.796 252.845 107.644 252.438C107.492 252.032 107.416 251.594 107.416 251.124V250.871C107.416 250.333 107.494 249.846 107.65 249.411C107.807 248.975 108.025 248.602 108.304 248.293C108.583 247.98 108.914 247.741 109.294 247.576C109.675 247.411 110.088 247.329 110.532 247.329C111.023 247.329 111.453 247.411 111.821 247.576C112.189 247.741 112.494 247.974 112.735 248.274C112.98 248.571 113.162 248.924 113.281 249.334C113.403 249.745 113.465 250.198 113.465 250.693V251.347H108.158V250.248H111.954V250.128C111.946 249.853 111.891 249.595 111.789 249.353C111.692 249.112 111.542 248.918 111.338 248.769C111.135 248.621 110.864 248.547 110.526 248.547C110.272 248.547 110.046 248.602 109.847 248.712C109.652 248.818 109.489 248.973 109.358 249.176C109.227 249.379 109.125 249.624 109.053 249.912C108.986 250.196 108.952 250.515 108.952 250.871V251.124C108.952 251.425 108.992 251.704 109.072 251.962C109.157 252.216 109.28 252.438 109.44 252.629C109.601 252.819 109.796 252.969 110.024 253.079C110.253 253.185 110.513 253.238 110.805 253.238C111.173 253.238 111.501 253.164 111.789 253.016C112.077 252.868 112.326 252.658 112.538 252.388L113.344 253.168C113.196 253.384 113.004 253.592 112.767 253.79C112.53 253.985 112.24 254.144 111.897 254.267C111.558 254.389 111.165 254.451 110.716 254.451ZM116.562 253.575L118.429 247.455H120.066L117.312 255.371C117.248 255.54 117.166 255.724 117.064 255.923C116.962 256.122 116.829 256.31 116.664 256.488C116.503 256.67 116.302 256.816 116.061 256.926C115.82 257.04 115.528 257.098 115.185 257.098C115.05 257.098 114.918 257.085 114.792 257.059C114.669 257.038 114.552 257.015 114.442 256.99L114.436 255.822C114.478 255.826 114.529 255.83 114.588 255.834C114.652 255.839 114.703 255.841 114.741 255.841C114.995 255.841 115.206 255.809 115.375 255.746C115.545 255.686 115.682 255.589 115.788 255.454C115.898 255.318 115.991 255.136 116.067 254.908L116.562 253.575ZM115.509 247.455L117.14 252.597L117.413 254.209L116.353 254.482L113.858 247.455H115.509ZM127.83 245.081V254.324H126.249V245.081H127.83ZM130.73 245.081V246.351H123.374V245.081H130.73ZM132.876 248.763V254.324H131.346V247.455H132.806L132.876 248.763ZM134.977 247.411L134.964 248.833C134.871 248.816 134.77 248.803 134.66 248.795C134.554 248.786 134.448 248.782 134.342 248.782C134.08 248.782 133.849 248.82 133.65 248.896C133.451 248.968 133.284 249.074 133.149 249.214C133.018 249.349 132.916 249.514 132.844 249.709C132.772 249.904 132.73 250.121 132.717 250.363L132.368 250.388C132.368 249.956 132.41 249.557 132.495 249.188C132.58 248.82 132.707 248.496 132.876 248.217C133.049 247.938 133.265 247.72 133.523 247.563C133.786 247.407 134.088 247.329 134.431 247.329C134.524 247.329 134.624 247.337 134.729 247.354C134.84 247.371 134.922 247.39 134.977 247.411ZM139.579 252.946V249.671C139.579 249.425 139.535 249.214 139.446 249.036C139.357 248.858 139.222 248.721 139.04 248.623C138.862 248.526 138.638 248.477 138.367 248.477C138.117 248.477 137.901 248.52 137.719 248.604C137.537 248.689 137.396 248.803 137.294 248.947C137.192 249.091 137.142 249.254 137.142 249.436H135.618C135.618 249.165 135.684 248.903 135.815 248.649C135.946 248.395 136.137 248.169 136.386 247.97C136.636 247.771 136.934 247.614 137.281 247.5C137.628 247.386 138.018 247.329 138.449 247.329C138.965 247.329 139.423 247.415 139.82 247.589C140.222 247.762 140.538 248.025 140.766 248.376C140.999 248.723 141.115 249.159 141.115 249.684V252.737C141.115 253.05 141.136 253.331 141.179 253.581C141.225 253.826 141.291 254.04 141.375 254.222V254.324H139.808C139.736 254.159 139.679 253.949 139.636 253.695C139.598 253.437 139.579 253.187 139.579 252.946ZM139.801 250.147L139.814 251.093H138.716C138.432 251.093 138.183 251.12 137.967 251.175C137.751 251.226 137.571 251.302 137.427 251.404C137.283 251.505 137.175 251.628 137.104 251.772C137.032 251.916 136.996 252.079 136.996 252.261C136.996 252.443 137.038 252.61 137.123 252.762C137.207 252.91 137.33 253.027 137.491 253.111C137.656 253.196 137.855 253.238 138.087 253.238C138.401 253.238 138.674 253.175 138.906 253.048C139.143 252.917 139.329 252.758 139.465 252.572C139.6 252.381 139.672 252.201 139.681 252.032L140.176 252.711C140.125 252.885 140.038 253.071 139.916 253.27C139.793 253.469 139.632 253.659 139.433 253.841C139.238 254.019 139.004 254.165 138.729 254.279C138.458 254.393 138.145 254.451 137.789 254.451C137.34 254.451 136.941 254.362 136.589 254.184C136.238 254.002 135.963 253.759 135.764 253.454C135.565 253.145 135.466 252.796 135.466 252.407C135.466 252.043 135.534 251.721 135.669 251.442C135.809 251.158 136.012 250.921 136.278 250.731C136.549 250.54 136.879 250.397 137.269 250.299C137.658 250.198 138.102 250.147 138.602 250.147H139.801ZM144.232 248.922V254.324H142.702V247.455H144.143L144.232 248.922ZM143.959 250.636L143.464 250.629C143.468 250.143 143.536 249.696 143.667 249.29C143.802 248.884 143.989 248.535 144.226 248.243C144.467 247.951 144.755 247.726 145.089 247.57C145.423 247.409 145.796 247.329 146.206 247.329C146.536 247.329 146.834 247.375 147.101 247.468C147.372 247.557 147.603 247.703 147.793 247.906C147.988 248.109 148.136 248.374 148.237 248.7C148.339 249.021 148.39 249.417 148.39 249.887V254.324H146.854V249.88C146.854 249.55 146.805 249.29 146.708 249.1C146.614 248.905 146.477 248.767 146.295 248.687C146.117 248.602 145.895 248.56 145.628 248.56C145.366 248.56 145.131 248.615 144.924 248.725C144.716 248.835 144.541 248.985 144.397 249.176C144.257 249.366 144.149 249.586 144.073 249.836C143.997 250.086 143.959 250.352 143.959 250.636ZM153.804 252.464C153.804 252.311 153.766 252.174 153.69 252.051C153.614 251.924 153.468 251.81 153.252 251.708C153.04 251.607 152.727 251.514 152.312 251.429C151.949 251.349 151.614 251.253 151.31 251.143C151.009 251.029 150.751 250.892 150.535 250.731C150.319 250.57 150.152 250.38 150.034 250.16C149.915 249.94 149.856 249.686 149.856 249.398C149.856 249.119 149.917 248.854 150.04 248.604C150.163 248.355 150.338 248.135 150.567 247.944C150.795 247.754 151.073 247.604 151.398 247.494C151.729 247.384 152.097 247.329 152.503 247.329C153.078 247.329 153.571 247.426 153.982 247.621C154.397 247.811 154.714 248.071 154.934 248.401C155.154 248.727 155.264 249.095 155.264 249.506H153.734C153.734 249.324 153.688 249.155 153.595 248.998C153.506 248.837 153.37 248.708 153.188 248.611C153.007 248.509 152.778 248.458 152.503 248.458C152.241 248.458 152.023 248.501 151.849 248.585C151.68 248.666 151.553 248.772 151.468 248.903C151.388 249.034 151.348 249.178 151.348 249.334C151.348 249.449 151.369 249.552 151.411 249.645C151.458 249.734 151.534 249.817 151.64 249.893C151.745 249.965 151.889 250.033 152.071 250.096C152.257 250.16 152.49 250.221 152.77 250.28C153.294 250.39 153.745 250.532 154.122 250.705C154.502 250.875 154.794 251.095 154.998 251.366C155.201 251.632 155.302 251.971 155.302 252.381C155.302 252.686 155.237 252.965 155.105 253.219C154.979 253.469 154.792 253.687 154.547 253.873C154.301 254.055 154.007 254.197 153.665 254.298C153.326 254.4 152.945 254.451 152.522 254.451C151.9 254.451 151.373 254.341 150.941 254.121C150.51 253.896 150.182 253.611 149.958 253.264C149.737 252.912 149.627 252.548 149.627 252.172H151.106C151.123 252.455 151.202 252.682 151.341 252.851C151.485 253.016 151.663 253.137 151.875 253.213C152.09 253.285 152.312 253.321 152.541 253.321C152.816 253.321 153.047 253.285 153.233 253.213C153.419 253.137 153.561 253.035 153.658 252.908C153.756 252.777 153.804 252.629 153.804 252.464ZM158.711 254.324H157.181V246.795C157.181 246.283 157.276 245.854 157.467 245.507C157.661 245.156 157.939 244.891 158.298 244.713C158.658 244.531 159.083 244.44 159.574 244.44C159.727 244.44 159.877 244.451 160.025 244.472C160.173 244.489 160.317 244.517 160.457 244.555L160.418 245.735C160.334 245.714 160.241 245.699 160.139 245.691C160.042 245.682 159.936 245.678 159.822 245.678C159.589 245.678 159.388 245.723 159.219 245.811C159.054 245.896 158.927 246.021 158.838 246.186C158.753 246.351 158.711 246.554 158.711 246.795V254.324ZM160.126 247.455V248.573H156.127V247.455H160.126ZM164.113 254.451C163.605 254.451 163.146 254.368 162.735 254.203C162.329 254.034 161.982 253.799 161.694 253.498C161.411 253.198 161.193 252.845 161.041 252.438C160.888 252.032 160.812 251.594 160.812 251.124V250.871C160.812 250.333 160.89 249.846 161.047 249.411C161.203 248.975 161.421 248.602 161.701 248.293C161.98 247.98 162.31 247.741 162.691 247.576C163.072 247.411 163.484 247.329 163.929 247.329C164.42 247.329 164.849 247.411 165.217 247.576C165.585 247.741 165.89 247.974 166.131 248.274C166.377 248.571 166.559 248.924 166.677 249.334C166.8 249.745 166.861 250.198 166.861 250.693V251.347H161.555V250.248H165.351V250.128C165.342 249.853 165.287 249.595 165.186 249.353C165.088 249.112 164.938 248.918 164.735 248.769C164.532 248.621 164.261 248.547 163.922 248.547C163.668 248.547 163.442 248.602 163.243 248.712C163.049 248.818 162.886 248.973 162.754 249.176C162.623 249.379 162.522 249.624 162.45 249.912C162.382 250.196 162.348 250.515 162.348 250.871V251.124C162.348 251.425 162.388 251.704 162.469 251.962C162.553 252.216 162.676 252.438 162.837 252.629C162.998 252.819 163.192 252.969 163.421 253.079C163.649 253.185 163.91 253.238 164.202 253.238C164.57 253.238 164.898 253.164 165.186 253.016C165.473 252.868 165.723 252.658 165.935 252.388L166.741 253.168C166.593 253.384 166.4 253.592 166.163 253.79C165.926 253.985 165.636 254.144 165.293 254.267C164.955 254.389 164.561 254.451 164.113 254.451ZM169.591 248.763V254.324H168.061V247.455H169.521L169.591 248.763ZM171.692 247.411L171.679 248.833C171.586 248.816 171.485 248.803 171.375 248.795C171.269 248.786 171.163 248.782 171.057 248.782C170.795 248.782 170.564 248.82 170.365 248.896C170.166 248.968 169.999 249.074 169.864 249.214C169.733 249.349 169.631 249.514 169.559 249.709C169.487 249.904 169.445 250.121 169.432 250.363L169.083 250.388C169.083 249.956 169.125 249.557 169.21 249.188C169.295 248.82 169.422 248.496 169.591 248.217C169.764 247.938 169.98 247.72 170.238 247.563C170.501 247.407 170.803 247.329 171.146 247.329C171.239 247.329 171.339 247.337 171.444 247.354C171.554 247.371 171.637 247.39 171.692 247.411ZM179.55 250.877H177.145V249.614H179.55C179.969 249.614 180.308 249.546 180.566 249.411C180.824 249.275 181.012 249.089 181.131 248.852C181.254 248.611 181.315 248.336 181.315 248.027C181.315 247.735 181.254 247.462 181.131 247.208C181.012 246.95 180.824 246.742 180.566 246.586C180.308 246.429 179.969 246.351 179.55 246.351H177.633V254.324H176.04V245.081H179.55C180.265 245.081 180.873 245.208 181.372 245.462C181.876 245.712 182.259 246.059 182.521 246.503C182.783 246.943 182.915 247.447 182.915 248.014C182.915 248.611 182.783 249.123 182.521 249.55C182.259 249.978 181.876 250.306 181.372 250.534C180.873 250.763 180.265 250.877 179.55 250.877ZM187.986 252.946V249.671C187.986 249.425 187.942 249.214 187.853 249.036C187.764 248.858 187.629 248.721 187.447 248.623C187.269 248.526 187.045 248.477 186.774 248.477C186.524 248.477 186.308 248.52 186.126 248.604C185.944 248.689 185.803 248.803 185.701 248.947C185.6 249.091 185.549 249.254 185.549 249.436H184.025C184.025 249.165 184.091 248.903 184.222 248.649C184.353 248.395 184.544 248.169 184.793 247.97C185.043 247.771 185.341 247.614 185.688 247.5C186.035 247.386 186.425 247.329 186.856 247.329C187.373 247.329 187.83 247.415 188.228 247.589C188.63 247.762 188.945 248.025 189.173 248.376C189.406 248.723 189.522 249.159 189.522 249.684V252.737C189.522 253.05 189.544 253.331 189.586 253.581C189.632 253.826 189.698 254.04 189.783 254.222V254.324H188.215C188.143 254.159 188.086 253.949 188.043 253.695C188.005 253.437 187.986 253.187 187.986 252.946ZM188.208 250.147L188.221 251.093H187.123C186.84 251.093 186.59 251.12 186.374 251.175C186.158 251.226 185.978 251.302 185.834 251.404C185.691 251.505 185.583 251.628 185.511 251.772C185.439 251.916 185.403 252.079 185.403 252.261C185.403 252.443 185.445 252.61 185.53 252.762C185.614 252.91 185.737 253.027 185.898 253.111C186.063 253.196 186.262 253.238 186.495 253.238C186.808 253.238 187.081 253.175 187.313 253.048C187.55 252.917 187.737 252.758 187.872 252.572C188.007 252.381 188.079 252.201 188.088 252.032L188.583 252.711C188.532 252.885 188.445 253.071 188.323 253.27C188.2 253.469 188.039 253.659 187.84 253.841C187.646 254.019 187.411 254.165 187.136 254.279C186.865 254.393 186.552 254.451 186.196 254.451C185.748 254.451 185.348 254.362 184.997 254.184C184.645 254.002 184.37 253.759 184.171 253.454C183.972 253.145 183.873 252.796 183.873 252.407C183.873 252.043 183.941 251.721 184.076 251.442C184.216 251.158 184.419 250.921 184.686 250.731C184.956 250.54 185.286 250.397 185.676 250.299C186.065 250.198 186.509 250.147 187.009 250.147H188.208ZM192.658 248.763V254.324H191.128V247.455H192.588L192.658 248.763ZM194.759 247.411L194.747 248.833C194.653 248.816 194.552 248.803 194.442 248.795C194.336 248.786 194.23 248.782 194.125 248.782C193.862 248.782 193.632 248.82 193.433 248.896C193.234 248.968 193.067 249.074 192.931 249.214C192.8 249.349 192.698 249.514 192.626 249.709C192.555 249.904 192.512 250.121 192.5 250.363L192.15 250.388C192.15 249.956 192.193 249.557 192.277 249.188C192.362 248.82 192.489 248.496 192.658 248.217C192.832 247.938 193.048 247.72 193.306 247.563C193.568 247.407 193.871 247.329 194.213 247.329C194.306 247.329 194.406 247.337 194.512 247.354C194.622 247.371 194.704 247.39 194.759 247.411ZM199.184 247.455V248.573H195.312V247.455H199.184ZM196.429 245.773H197.958V252.426C197.958 252.637 197.988 252.8 198.047 252.914C198.111 253.024 198.198 253.099 198.308 253.137C198.418 253.175 198.547 253.194 198.695 253.194C198.801 253.194 198.902 253.187 199 253.175C199.097 253.162 199.175 253.149 199.234 253.137L199.241 254.305C199.114 254.343 198.966 254.377 198.796 254.406C198.631 254.436 198.441 254.451 198.225 254.451C197.874 254.451 197.563 254.389 197.292 254.267C197.021 254.14 196.81 253.934 196.657 253.651C196.505 253.367 196.429 252.991 196.429 252.521V245.773ZM201.881 248.922V254.324H200.352V247.455H201.792L201.881 248.922ZM201.608 250.636L201.113 250.629C201.118 250.143 201.185 249.696 201.316 249.29C201.452 248.884 201.638 248.535 201.875 248.243C202.116 247.951 202.404 247.726 202.738 247.57C203.073 247.409 203.445 247.329 203.855 247.329C204.186 247.329 204.484 247.375 204.75 247.468C205.021 247.557 205.252 247.703 205.442 247.906C205.637 248.109 205.785 248.374 205.887 248.7C205.988 249.021 206.039 249.417 206.039 249.887V254.324H204.503V249.88C204.503 249.55 204.454 249.29 204.357 249.1C204.264 248.905 204.126 248.767 203.944 248.687C203.767 248.602 203.544 248.56 203.278 248.56C203.015 248.56 202.781 248.615 202.573 248.725C202.366 248.835 202.19 248.985 202.046 249.176C201.907 249.366 201.799 249.586 201.723 249.836C201.646 250.086 201.608 250.352 201.608 250.636ZM210.628 254.451C210.121 254.451 209.661 254.368 209.251 254.203C208.845 254.034 208.498 253.799 208.21 253.498C207.926 253.198 207.708 252.845 207.556 252.438C207.404 252.032 207.328 251.594 207.328 251.124V250.871C207.328 250.333 207.406 249.846 207.562 249.411C207.719 248.975 207.937 248.602 208.216 248.293C208.496 247.98 208.826 247.741 209.207 247.576C209.587 247.411 210 247.329 210.444 247.329C210.935 247.329 211.365 247.411 211.733 247.576C212.101 247.741 212.406 247.974 212.647 248.274C212.892 248.571 213.074 248.924 213.193 249.334C213.316 249.745 213.377 250.198 213.377 250.693V251.347H208.07V250.248H211.866V250.128C211.858 249.853 211.803 249.595 211.701 249.353C211.604 249.112 211.454 248.918 211.25 248.769C211.047 248.621 210.777 248.547 210.438 248.547C210.184 248.547 209.958 248.602 209.759 248.712C209.564 248.818 209.401 248.973 209.27 249.176C209.139 249.379 209.037 249.624 208.965 249.912C208.898 250.196 208.864 250.515 208.864 250.871V251.124C208.864 251.425 208.904 251.704 208.984 251.962C209.069 252.216 209.192 252.438 209.353 252.629C209.513 252.819 209.708 252.969 209.937 253.079C210.165 253.185 210.425 253.238 210.717 253.238C211.085 253.238 211.413 253.164 211.701 253.016C211.989 252.868 212.239 252.658 212.45 252.388L213.256 253.168C213.108 253.384 212.916 253.592 212.679 253.79C212.442 253.985 212.152 254.144 211.809 254.267C211.471 254.389 211.077 254.451 210.628 254.451ZM216.106 248.763V254.324H214.577V247.455H216.037L216.106 248.763ZM218.208 247.411L218.195 248.833C218.102 248.816 218 248.803 217.89 248.795C217.784 248.786 217.679 248.782 217.573 248.782C217.31 248.782 217.08 248.82 216.881 248.896C216.682 248.968 216.515 249.074 216.379 249.214C216.248 249.349 216.147 249.514 216.075 249.709C216.003 249.904 215.96 250.121 215.948 250.363L215.599 250.388C215.599 249.956 215.641 249.557 215.726 249.188C215.81 248.82 215.937 248.496 216.106 248.217C216.28 247.938 216.496 247.72 216.754 247.563C217.016 247.407 217.319 247.329 217.662 247.329C217.755 247.329 217.854 247.337 217.96 247.354C218.07 247.371 218.153 247.39 218.208 247.411ZM218.328 253.562C218.328 253.325 218.409 253.126 218.569 252.965C218.73 252.8 218.948 252.718 219.223 252.718C219.502 252.718 219.72 252.8 219.877 252.965C220.038 253.126 220.118 253.325 220.118 253.562C220.118 253.799 220.038 253.998 219.877 254.159C219.72 254.319 219.502 254.4 219.223 254.4C218.948 254.4 218.73 254.319 218.569 254.159C218.409 253.998 218.328 253.799 218.328 253.562Z" fill="#878787"/>
<defs>
<linearGradient id="paint0_linear_136_9262" x1="64.8078" y1="172.888" x2="58.5235" y2="185.827" gradientUnits="userSpaceOnUse">
<stop stop-color="#1B75BB"/>
<stop offset="0.58" stop-color="#2B388F"/>
<stop offset="1" stop-color="#262261"/>
</linearGradient>
<linearGradient id="paint1_linear_136_9262" x1="42.3394" y1="209.757" x2="51.4819" y2="213.532" gradientUnits="userSpaceOnUse">
<stop stop-color="#1B75BB"/>
<stop offset="0.58" stop-color="#2B388F"/>
<stop offset="1" stop-color="#262261"/>
</linearGradient>
<linearGradient id="paint2_linear_136_9262" x1="63.9811" y1="178.342" x2="43.9931" y2="206.962" gradientUnits="userSpaceOnUse">
<stop stop-color="#009DDA"/>
<stop offset="0.58" stop-color="#1B75BB"/>
<stop offset="1" stop-color="#2B388F"/>
</linearGradient>
<linearGradient id="paint3_linear_136_9262" x1="66.5846" y1="160.105" x2="56.9854" y2="213.733" gradientUnits="userSpaceOnUse">
<stop stop-color="#009DDA"/>
<stop offset="0.58" stop-color="#1B75BB"/>
<stop offset="1" stop-color="#2B388F"/>
</linearGradient>
<radialGradient id="paint4_radial_136_9262" cx="0" cy="0" r="1" gradientUnits="userSpaceOnUse" gradientTransform="translate(39.9021 186.794) scale(32.5013 32.6302)">
<stop stop-color="#00BFF2"/>
<stop offset="0.58" stop-color="#2395D2"/>
<stop offset="1" stop-color="#244093"/>
</radialGradient>
<radialGradient id="paint5_radial_136_9262" cx="0" cy="0" r="1" gradientUnits="userSpaceOnUse" gradientTransform="translate(87.1228 170.787) scale(40.7286 40.8902)">
<stop stop-color="#00BFF2"/>
<stop offset="0.58" stop-color="#2395D2"/>
<stop offset="1" stop-color="#244093"/>
</radialGradient>
<linearGradient id="paint6_linear_136_9262" x1="65.106" y1="168.354" x2="46.5934" y2="202.95" gradientUnits="userSpaceOnUse">
<stop stop-color="#009DDA"/>
<stop offset="0.58" stop-color="#1B75BB"/>
<stop offset="1" stop-color="#2B388F"/>
</linearGradient>
<linearGradient id="paint7_linear_136_9262" x1="72.9141" y1="172.532" x2="54.4051" y2="207.128" gradientUnits="userSpaceOnUse">
<stop stop-color="#009DDA"/>
<stop offset="0.58" stop-color="#1B75BB"/>
<stop offset="1" stop-color="#2B388F"/>
</linearGradient>
<linearGradient id="paint8_linear_136_9262" x1="58.2303" y1="209.426" x2="24.2582" y2="193.597" gradientUnits="userSpaceOnUse">
<stop stop-color="#009DDA"/>
<stop offset="0.58" stop-color="#1B75BB"/>
<stop offset="1" stop-color="#2B388F"/>
</linearGradient>
<linearGradient id="paint9_linear_136_9262" x1="70.5124" y1="183.061" x2="36.5368" y2="167.236" gradientUnits="userSpaceOnUse">
<stop stop-color="#009DDA"/>
<stop offset="0.58" stop-color="#1B75BB"/>
<stop offset="1" stop-color="#2B388F"/>
</linearGradient>
<linearGradient id="paint10_linear_136_9262" x1="70.5765" y1="176.771" x2="62.6669" y2="186.304" gradientUnits="userSpaceOnUse">
<stop stop-color="white"/>
<stop offset="0.04" stop-color="#F7FAFD"/>
<stop offset="0.11" stop-color="#E0ECF6"/>
<stop offset="0.2" stop-color="#BAD5EB"/>
<stop offset="0.3" stop-color="#86B6DB"/>
<stop offset="0.41" stop-color="#458EC7"/>
<stop offset="0.47" stop-color="#1B75BB"/>
<stop offset="0.78" stop-color="#2B388F"/>
<stop offset="1" stop-color="#262261"/>
</linearGradient>
<linearGradient id="paint11_linear_136_9262" x1="42.4886" y1="210.705" x2="53.2454" y2="213.937" gradientUnits="userSpaceOnUse">
<stop stop-color="white"/>
<stop offset="0.04" stop-color="#F7FAFD"/>
<stop offset="0.11" stop-color="#E0ECF6"/>
<stop offset="0.2" stop-color="#BAD5EB"/>
<stop offset="0.3" stop-color="#86B6DB"/>
<stop offset="0.41" stop-color="#458EC7"/>
<stop offset="0.47" stop-color="#1B75BB"/>
<stop offset="0.78" stop-color="#2B388F"/>
<stop offset="1" stop-color="#262261"/>
</linearGradient>
<radialGradient id="paint12_radial_136_9262" cx="0" cy="0" r="1" gradientUnits="userSpaceOnUse" gradientTransform="translate(75.4741 181.804) rotate(42.258) scale(7.59291 1.13654)">
<stop offset="0.15" stop-color="white"/>
<stop offset="0.28" stop-color="#C2C2C2"/>
<stop offset="0.43" stop-color="#888888"/>
<stop offset="0.56" stop-color="#575757"/>
<stop offset="0.69" stop-color="#313131"/>
<stop offset="0.81" stop-color="#161616"/>
<stop offset="0.92" stop-color="#060606"/>
<stop offset="1"/>
</radialGradient>
<radialGradient id="paint13_radial_136_9262" cx="0" cy="0" r="1" gradientUnits="userSpaceOnUse" gradientTransform="translate(46.4061 207.721) rotate(88.364) scale(4.56322 0.619019)">
<stop offset="0.15" stop-color="white"/>
<stop offset="0.28" stop-color="#C2C2C2"/>
<stop offset="0.43" stop-color="#888888"/>
<stop offset="0.56" stop-color="#575757"/>
<stop offset="0.69" stop-color="#313131"/>
<stop offset="0.81" stop-color="#161616"/>
<stop offset="0.92" stop-color="#060606"/>
<stop offset="1"/>
</radialGradient>
<linearGradient id="paint14_linear_136_9262" x1="97.4083" y1="197.512" x2="124.471" y2="197.512" gradientUnits="userSpaceOnUse">
<stop stop-color="#009DDA"/>
<stop offset="0.58" stop-color="#1B75BB"/>
<stop offset="1" stop-color="#2B388F"/>
</linearGradient>
<linearGradient id="paint15_linear_136_9262" x1="128.703" y1="197.38" x2="141.844" y2="197.38" gradientUnits="userSpaceOnUse">
<stop stop-color="#009DDA"/>
<stop offset="0.58" stop-color="#1B75BB"/>
<stop offset="1" stop-color="#2B388F"/>
</linearGradient>
<linearGradient id="paint16_linear_136_9262" x1="147.591" y1="197.512" x2="174.65" y2="197.512" gradientUnits="userSpaceOnUse">
<stop stop-color="#009DDA"/>
<stop offset="0.58" stop-color="#1B75BB"/>
<stop offset="1" stop-color="#2B388F"/>
</linearGradient>
<linearGradient id="paint17_linear_136_9262" x1="174.565" y1="197.512" x2="207.371" y2="197.512" gradientUnits="userSpaceOnUse">
<stop stop-color="#009DDA"/>
<stop offset="0.58" stop-color="#1B75BB"/>
<stop offset="1" stop-color="#2B388F"/>
</linearGradient>
<linearGradient id="paint18_linear_136_9262" x1="205.817" y1="197.512" x2="237.499" y2="197.512" gradientUnits="userSpaceOnUse">
<stop stop-color="#009DDA"/>
<stop offset="0.58" stop-color="#1B75BB"/>
<stop offset="1" stop-color="#2B388F"/>
</linearGradient>
</defs>
</svg>
