<svg width="14" height="17" viewBox="0 0 14 17" fill="none" xmlns="http://www.w3.org/2000/svg">
<path d="M13.7066 12.7925C13.4552 13.3515 13.1577 13.866 12.813 14.3391C12.3431 14.984 11.9584 15.4304 11.6619 15.6783C11.2023 16.0852 10.7098 16.2936 10.1825 16.3055C9.8039 16.3055 9.34735 16.2018 8.81592 15.9914C8.28274 15.782 7.79275 15.6783 7.34472 15.6783C6.87484 15.6783 6.37089 15.782 5.83186 15.9914C5.29201 16.2018 4.85712 16.3114 4.52461 16.3223C4.01892 16.343 3.51488 16.1287 3.01175 15.6783C2.69063 15.4087 2.28898 14.9465 1.80781 14.2917C1.29156 13.5925 0.867126 12.7816 0.534618 11.8572C0.178514 10.8587 0 9.89184 0 8.95577C0 7.88351 0.240686 6.9587 0.722776 6.18371C1.10166 5.56121 1.6057 5.07016 2.23655 4.70968C2.8674 4.3492 3.54904 4.1655 4.2831 4.15375C4.68476 4.15375 5.21148 4.27335 5.86603 4.5084C6.51873 4.74425 6.93783 4.86385 7.12157 4.86385C7.25895 4.86385 7.72452 4.724 8.51378 4.44519C9.26015 4.18663 9.89008 4.07958 10.4061 4.12175C11.8045 4.23039 12.8551 4.76104 13.5537 5.71706C12.3031 6.44652 11.6845 7.46821 11.6968 8.77889C11.708 9.7998 12.0928 10.6494 12.8489 11.3239C13.1916 11.637 13.5742 11.8789 14 12.0508C13.9077 12.3086 13.8102 12.5555 13.7066 12.7925ZM10.4995 0.64373C10.4995 1.44391 10.1958 2.19104 9.5905 2.88258C8.86003 3.70467 7.97649 4.17972 7.01836 4.10476C7.00616 4.00876 6.99908 3.90773 6.99908 3.80156C6.99908 3.03339 7.34646 2.21129 7.96336 1.53911C8.27135 1.19877 8.66305 0.915791 9.13806 0.690049C9.61205 0.467676 10.0604 0.344698 10.482 0.323639C10.4944 0.430611 10.4995 0.53759 10.4995 0.64372V0.64373Z" fill="#191D23"/>
</svg>
