<svg width="16" height="17" viewBox="0 0 16 17" fill="none" xmlns="http://www.w3.org/2000/svg">
<path fill-rule="evenodd" clip-rule="evenodd" d="M15.68 8.50547C15.68 7.9382 15.6291 7.39275 15.5345 6.86911H8V9.96366H12.3055C12.12 10.9637 11.5564 11.8109 10.7091 12.3782V14.3855H13.2945C14.8073 12.9927 15.68 10.9418 15.68 8.50547Z" fill="#191D23"/>
<path fill-rule="evenodd" clip-rule="evenodd" d="M8.00017 16.3235C10.1602 16.3235 11.9711 15.6071 13.2947 14.3853L10.7093 12.3781C9.99289 12.8581 9.07653 13.1417 8.00017 13.1417C5.91653 13.1417 4.15289 11.7344 3.5238 9.84351H0.851074V11.9162C2.16744 14.5308 4.87289 16.3235 8.00017 16.3235Z" fill="#191D23"/>
<path fill-rule="evenodd" clip-rule="evenodd" d="M3.52364 9.84368C3.36364 9.36368 3.27273 8.85095 3.27273 8.32368C3.27273 7.7964 3.36364 7.28368 3.52364 6.80368V4.73095H0.850909C0.309091 5.81095 0 7.03277 0 8.32368C0 9.61459 0.309091 10.8364 0.850909 11.9164L3.52364 9.84368Z" fill="#191D23"/>
<path fill-rule="evenodd" clip-rule="evenodd" d="M8.00017 3.50546C9.17471 3.50546 10.2293 3.90909 11.0583 4.70182L13.3529 2.40728C11.9674 1.11637 10.1565 0.323639 8.00017 0.323639C4.87289 0.323639 2.16744 2.11637 0.851074 4.73091L3.5238 6.80364C4.15289 4.91273 5.91653 3.50546 8.00017 3.50546Z" fill="#191D23"/>
</svg>
