<svg width="24" height="24" viewBox="0 0 24 24" fill="none" xmlns="http://www.w3.org/2000/svg">
<g id="search 1" clip-path="url(#clip0_501_1790)">
<path id="Vector" d="M5.29676 14.1772L4.48983 17.1895L1.54054 17.2519C0.659128 15.6171 0.15918 13.7467 0.15918 11.759C0.15918 9.83696 0.626619 8.02444 1.45519 6.42847H1.45582L4.08152 6.90985L5.23174 9.5198C4.991 10.2216 4.85979 10.975 4.85979 11.759C4.85988 12.6099 5.014 13.4251 5.29676 14.1772Z" fill="#FBBB00"/>
<path id="Vector_2" d="M23.1384 9.59326C23.2716 10.2944 23.341 11.0185 23.341 11.7586C23.341 12.5884 23.2537 13.3979 23.0875 14.1787C22.5233 16.8357 21.0489 19.1558 19.0065 20.7976L19.0059 20.797L15.6987 20.6282L15.2306 17.7063C16.5858 16.9115 17.6449 15.6677 18.2028 14.1787H12.0049V9.59326H18.2933H23.1384Z" fill="#518EF8"/>
<path id="Vector_3" d="M19.0054 20.7974L19.006 20.7981C17.0197 22.3947 14.4964 23.35 11.7496 23.35C7.3355 23.35 3.49777 20.8828 1.54004 17.252L5.29626 14.1772C6.27511 16.7896 8.79518 18.6493 11.7496 18.6493C13.0195 18.6493 14.2092 18.306 15.23 17.7067L19.0054 20.7974Z" fill="#28B446"/>
<path id="Vector_4" d="M19.1484 2.83641L15.3935 5.91054C14.3369 5.25013 13.088 4.86863 11.75 4.86863C8.72869 4.86863 6.16148 6.81359 5.23168 9.51966L1.45571 6.42833H1.45508C3.38415 2.70905 7.27027 0.167969 11.75 0.167969C14.5624 0.167969 17.141 1.16977 19.1484 2.83641Z" fill="#F14336"/>
</g>
<defs>
<clipPath id="clip0_501_1790">
<rect width="23.1818" height="23.1818" fill="white" transform="translate(0.15918 0.167969)"/>
</clipPath>
</defs>
</svg>
