<svg width="32" height="32" viewBox="0 0 32 32" fill="none" xmlns="http://www.w3.org/2000/svg">
<rect width="32" height="32" rx="4" fill="#3862F8"/>
<g clip-path="url(#clip0_50_2264)">
<g filter="url(#filter0_d_50_2264)">
<path d="M3.5 4.28125C3.5 4.07405 3.58231 3.87534 3.72882 3.72882C3.87534 3.58231 4.07405 3.5 4.28125 3.5H8.96875C9.17595 3.5 9.37466 3.58231 9.52118 3.72882C9.66769 3.87534 9.75 4.07405 9.75 4.28125C9.75 4.48845 9.66769 4.68716 9.52118 4.83368C9.37466 4.98019 9.17595 5.0625 8.96875 5.0625C6.81139 5.0625 5.0625 6.81139 5.0625 8.96875C5.0625 9.17595 4.98019 9.37466 4.83368 9.52118C4.68716 9.66769 4.48845 9.75 4.28125 9.75C4.07405 9.75 3.87534 9.66769 3.72882 9.52118C3.58231 9.37466 3.5 9.17595 3.5 8.96875V4.28125ZM22.25 4.28125C22.25 4.07405 22.3323 3.87534 22.4788 3.72882C22.6253 3.58231 22.8241 3.5 23.0312 3.5H27.7188C27.926 3.5 28.1247 3.58231 28.2712 3.72882C28.4177 3.87534 28.5 4.07405 28.5 4.28125V8.96875C28.5 9.17595 28.4177 9.37466 28.2712 9.52118C28.1247 9.66769 27.926 9.75 27.7188 9.75C27.5116 9.75 27.3128 9.66769 27.1663 9.52118C27.0198 9.37466 26.9375 9.17595 26.9375 8.96875C26.9375 6.81139 25.1886 5.0625 23.0312 5.0625C22.8241 5.0625 22.6253 4.98019 22.4788 4.83368C22.3323 4.68716 22.25 4.48845 22.25 4.28125ZM4.28125 22.25C4.48845 22.25 4.68716 22.3323 4.83368 22.4788C4.98019 22.6253 5.0625 22.8241 5.0625 23.0312C5.0625 25.1886 6.81139 26.9375 8.96875 26.9375C9.17595 26.9375 9.37466 27.0198 9.52118 27.1663C9.66769 27.3128 9.75 27.5116 9.75 27.7188C9.75 27.926 9.66769 28.1247 9.52118 28.2712C9.37466 28.4177 9.17595 28.5 8.96875 28.5H4.28125C4.07405 28.5 3.87534 28.4177 3.72882 28.2712C3.58231 28.1247 3.5 27.926 3.5 27.7188V23.0312C3.5 22.8241 3.58231 22.6253 3.72882 22.4788C3.87534 22.3323 4.07405 22.25 4.28125 22.25ZM27.7188 22.25C27.926 22.25 28.1247 22.3323 28.2712 22.4788C28.4177 22.6253 28.5 22.8241 28.5 23.0312V27.7188C28.5 27.926 28.4177 28.1247 28.2712 28.2712C28.1247 28.4177 27.926 28.5 27.7188 28.5H23.0312C22.8241 28.5 22.6253 28.4177 22.4788 28.2712C22.3323 28.1247 22.25 27.926 22.25 27.7188C22.25 27.5116 22.3323 27.3128 22.4788 27.1663C22.6253 27.0198 22.8241 26.9375 23.0312 26.9375C25.1886 26.9375 26.9375 25.1886 26.9375 23.0312C26.9375 22.8241 27.0198 22.6253 27.1663 22.4788C27.3128 22.3323 27.5116 22.25 27.7188 22.25ZM9.75 10.5313C9.75 10.0998 10.0998 9.75 10.5313 9.75C10.9627 9.75 11.3125 10.0998 11.3125 10.5313C11.3125 10.9627 10.9627 11.3125 10.5313 11.3125C10.0998 11.3125 9.75 10.9627 9.75 10.5313Z" fill="white"/>
</g>
<path d="M14.4375 6.625H6.625V14.4375H14.4375V6.625ZM8.1875 8.1875H12.875V12.875H8.1875V8.1875ZM11.3125 20.6875H9.75V22.25H11.3125V20.6875Z" fill="white"/>
<path d="M14.4375 17.5625H6.625V25.375H14.4375V17.5625ZM8.1875 19.125H12.875V23.8125H8.1875V19.125ZM20.6875 9.75H22.25V11.3125H20.6875V9.75Z" fill="white"/>
<path d="M17.5625 6.625H25.375V14.4375H17.5625V6.625ZM19.125 8.1875V12.875H23.8125V8.1875H19.125ZM16 16V19.125H17.5625V20.6875H16V22.25H19.125V19.125H20.6875V22.25H22.25V20.6875H25.375V19.125H20.6875V16H16ZM19.125 19.125H17.5625V17.5625H19.125V19.125ZM25.375 22.25H23.8125V23.8125H20.6875V25.375H25.375V22.25ZM19.125 25.375V23.8125H16V25.375H19.125Z" fill="white"/>
<path d="M22.25 17.5625H25.375V16H22.25V17.5625Z" fill="white"/>
<circle cx="10.5141" cy="10.5139" r="0.902778" fill="white"/>
<path d="M3.98633 16L28.2224 15.7917" stroke="white" stroke-width="7" stroke-linecap="round" stroke-linejoin="round"/>
</g>
<defs>
<filter id="filter0_d_50_2264" x="-51.5" y="-51.5" width="135" height="135" filterUnits="userSpaceOnUse" color-interpolation-filters="sRGB">
<feFlood flood-opacity="0" result="BackgroundImageFix"/>
<feColorMatrix in="SourceAlpha" type="matrix" values="0 0 0 0 0 0 0 0 0 0 0 0 0 0 0 0 0 0 127 0" result="hardAlpha"/>
<feOffset/>
<feGaussianBlur stdDeviation="27.5"/>
<feComposite in2="hardAlpha" operator="out"/>
<feColorMatrix type="matrix" values="0 0 0 0 0.992157 0 0 0 0 0.713726 0 0 0 0 0.137255 0 0 0 1 0"/>
<feBlend mode="normal" in2="BackgroundImageFix" result="effect1_dropShadow_50_2264"/>
<feBlend mode="normal" in="SourceGraphic" in2="effect1_dropShadow_50_2264" result="shape"/>
</filter>
<clipPath id="clip0_50_2264">
<rect x="3.5" y="3.5" width="25" height="25" rx="4" fill="white"/>
</clipPath>
</defs>
</svg>
