<svg width="201" height="203" viewBox="0 0 201 203" fill="none" xmlns="http://www.w3.org/2000/svg">
<g id="undraw_happy_feeling_slmw 1" clip-path="url(#clip0_195_5411)">
<path id="Vector" d="M177.294 77.2848C166.039 33.1648 127.149 1.3163 81.5014 0.0388782C57.3687 -0.636453 31.9745 7.34248 13.4856 35.2637C-19.5653 85.1758 15.5166 119.667 39.9748 136.056C51.7911 143.99 62.4383 153.53 71.6078 164.4C88.1286 183.943 119.911 208.229 157.762 170.177C185.196 142.597 184.791 106.673 177.294 77.2848Z" fill="#F2F2F2"/>
<path id="Vector_2" d="M196.54 178.875C196.54 187.571 155.518 203 104.914 203C54.3103 203 18.0908 171.734 18.0908 163.038C18.0908 154.342 54.3103 171.509 104.914 171.509C155.518 171.509 196.54 170.179 196.54 178.875Z" fill="#3F3D56"/>
<path id="Vector_3" opacity="0.1" d="M196.54 178.875C196.54 187.571 155.518 203 104.914 203C54.3103 203 18.0908 171.734 18.0908 163.038C18.0908 154.342 54.3103 171.509 104.914 171.509C155.518 171.509 196.54 170.179 196.54 178.875Z" fill="black"/>
<path id="Vector_4" d="M196.54 178.783C196.54 187.479 155.518 194.529 104.914 194.529C54.3103 194.529 18.0908 171.734 18.0908 163.038C18.0908 154.342 54.3103 163.038 104.914 163.038C155.518 163.038 196.54 170.087 196.54 178.783Z" fill="#3F3D56"/>
<g id="Group" opacity="0.7">
<path id="Vector_5" opacity="0.7" d="M193.508 47.3941C190.184 53.8249 179.651 61.4027 173.2 58.0895C166.749 54.7763 166.824 41.8268 170.148 35.396C171.744 32.3085 174.505 29.9795 177.824 28.9212C181.143 27.863 184.747 28.1623 187.844 29.7531C190.942 31.344 193.279 34.0962 194.341 37.4045C195.403 40.7127 195.103 44.306 193.508 47.3941Z" fill="#3862F8"/>
<path id="Vector_6" opacity="0.7" d="M173.746 59.79C173.538 59.3872 173.21 59.0591 172.806 58.8517C172.402 58.6443 171.944 58.568 171.494 58.6336L172.654 56.3889L174.906 57.5454L173.746 59.79Z" fill="#3862F8"/>
<path id="Vector_7" opacity="0.7" d="M172.104 57.4668C172.363 57.8231 172.703 58.113 173.096 58.3128C173.489 58.5127 173.924 58.6166 174.365 58.6161" stroke="#2F2E41" stroke-width="2" stroke-miterlimit="10"/>
<path id="Vector_8" opacity="0.4" d="M191.683 40.2433C192.524 38.6162 192.103 36.731 190.743 36.0324C189.383 35.3338 187.599 36.0865 186.758 37.7136C185.917 39.3407 186.338 41.226 187.698 41.9245C189.058 42.6231 190.842 41.8704 191.683 40.2433Z" fill="white"/>
<path id="Vector_9" opacity="0.7" d="M173.139 58.1699L163.337 82.7607" stroke="#2F2E41" stroke-width="2" stroke-miterlimit="10"/>
</g>
<path id="Vector_10" d="M195.577 86.842C188.301 94.16 170.737 99.9592 163.396 92.7054C156.056 85.4516 161.718 67.8917 168.994 60.5737C172.489 57.0615 177.24 55.0768 182.202 55.0558C187.164 55.0349 191.932 56.9795 195.456 60.4621C198.98 63.9447 200.973 68.6802 200.996 73.6271C201.018 78.574 199.069 83.3274 195.577 86.842Z" fill="#FF6584"/>
<path id="Vector_11" d="M163.407 95.2483C163.298 94.6125 162.993 94.0266 162.533 93.5725C162.074 93.1185 161.483 92.8192 160.845 92.7164L163.384 90.1621L165.947 92.694L163.407 95.2483Z" fill="#FF6584"/>
<path id="Vector_12" d="M162.175 91.3918C162.373 91.9862 162.71 92.5251 163.158 92.9643C163.606 93.4034 164.153 93.7302 164.752 93.9177" stroke="#2F2E41" stroke-width="2" stroke-miterlimit="10"/>
<path id="Vector_13" d="M162.907 93.3223L138.779 117.588" stroke="#2F2E41" stroke-width="2" stroke-miterlimit="10"/>
<path id="Vector_14" opacity="0.4" d="M196.168 76.3488C198.009 74.4973 198.246 71.7565 196.699 70.2271C195.151 68.6977 192.404 68.9588 190.563 70.8103C188.722 72.6619 188.484 75.4027 190.032 76.9321C191.58 78.4615 194.327 78.2004 196.168 76.3488Z" fill="white"/>
<path id="Vector_15" d="M172.834 63.1343C170.436 73.1571 158.459 87.2159 148.405 84.8257C138.351 82.4354 134.028 64.5013 136.426 54.4785C137.58 49.6682 140.603 45.5116 144.83 42.9224C149.057 40.3332 154.142 39.5233 158.968 40.6706C163.794 41.8179 167.966 44.8287 170.566 49.041C173.166 53.2533 173.982 58.3225 172.834 63.1343Z" fill="#3862F8"/>
<path id="Vector_16" d="M149.742 86.9921C149.317 86.5054 148.751 86.1633 148.121 86.0137C147.492 85.8641 146.832 85.9145 146.232 86.1578L147.069 82.6594L150.579 83.4937L149.742 86.9921Z" fill="#1DAB87"/>
<path id="Vector_17" d="M146.678 84.3367C147.157 84.7415 147.726 85.0271 148.338 85.1699C148.95 85.3127 149.587 85.3086 150.197 85.1581" stroke="#2F2E41" stroke-width="2" stroke-miterlimit="10"/>
<path id="Vector_18" opacity="0.4" d="M167.866 53.8652C168.472 51.3293 167.246 48.865 165.126 48.3611C163.006 47.8571 160.796 49.5043 160.189 52.0402C159.583 54.5761 160.809 57.0404 162.929 57.5444C165.049 58.0483 167.259 56.4011 167.866 53.8652Z" fill="white"/>
<path id="Vector_19" d="M148.35 85.6021L140.399 118.836" stroke="#2F2E41" stroke-width="2" stroke-miterlimit="10"/>
<g id="Group_2" opacity="0.8">
<path id="Vector_20" opacity="0.8" d="M61.3929 151.018C56.1664 156.088 43.7021 159.956 38.6163 154.746C33.5305 149.535 37.7491 137.22 42.9755 132.15C44.2182 130.944 45.687 129.994 47.2979 129.355C48.9089 128.715 50.6304 128.398 52.3642 128.421C54.0981 128.445 55.8103 128.809 57.4031 129.492C58.996 130.175 60.4382 131.165 61.6475 132.403C62.8568 133.642 63.8095 135.107 64.4512 136.713C65.0928 138.318 65.4109 140.035 65.3873 141.763C65.3636 143.492 64.9987 145.199 64.3134 146.786C63.628 148.374 62.6356 149.812 61.3929 151.018Z" fill="#3862F8"/>
<path id="Vector_21" opacity="0.8" d="M38.5916 156.54C38.523 156.09 38.315 155.673 37.9967 155.346C37.6783 155.02 37.2656 154.802 36.8164 154.721L38.6407 152.951L40.4158 154.77L38.5916 156.54Z" fill="#1DAB87"/>
<path id="Vector_22" opacity="0.8" d="M37.7725 153.803C37.9048 154.225 38.1357 154.61 38.4461 154.925C38.7566 155.241 39.1378 155.478 39.5583 155.618" stroke="#2F2E41" stroke-width="2" stroke-miterlimit="10"/>
<path id="Vector_23" opacity="0.4" d="M61.9436 143.623C63.2659 142.34 63.4686 140.41 62.3963 139.311C61.324 138.212 59.3827 138.362 58.0604 139.645C56.738 140.927 56.5353 142.858 57.6076 143.956C58.6799 145.055 60.6212 144.906 61.9436 143.623Z" fill="white"/>
</g>
<path id="Vector_24" d="M118.117 44.1738H121.789C124.197 44.1738 126.508 45.1278 128.211 46.8258C129.914 48.5239 130.871 50.8269 130.871 53.2283V65.9432H109.034V53.2283C109.034 52.0393 109.269 50.8619 109.726 49.7633C110.182 48.6648 110.851 47.6666 111.694 46.8258C112.538 45.985 113.539 45.3181 114.641 44.8631C115.743 44.408 116.924 44.1738 118.117 44.1738Z" fill="#2F2E41"/>
<path id="Vector_25" d="M107.695 100.857L104.939 106.634C104.939 106.634 102.693 114.393 105.238 115.223C107.783 116.052 108.28 107.26 108.28 107.26L110.388 101.438L107.695 100.857Z" fill="#FFB9B9"/>
<path id="Vector_26" opacity="0.1" d="M107.695 100.857L104.939 106.634C104.939 106.634 102.693 114.393 105.238 115.223C107.783 116.052 108.28 107.26 108.28 107.26L110.388 101.438L107.695 100.857Z" fill="black"/>
<path id="Vector_27" d="M108.217 91.8171L104.731 103.978L110.25 106.873V92.3961L108.217 91.8171Z" fill="#575A89"/>
<path id="Vector_28" d="M117.656 59.5326C117.656 59.5326 117.366 64.1653 116.785 64.1653C116.204 64.1653 115.042 69.6667 115.042 69.6667L119.98 72.8517L126.079 67.3504L124.336 63.0072C124.336 63.0072 123.465 61.2699 123.755 59.5326C124.046 57.7953 117.656 59.5326 117.656 59.5326Z" fill="#FFB9B9"/>
<path id="Vector_29" opacity="0.1" d="M117.656 59.5326C117.656 59.5326 117.366 64.1653 116.785 64.1653C116.204 64.1653 115.042 69.6667 115.042 69.6667L119.98 72.8517L126.079 67.3504L124.336 63.0072C124.336 63.0072 123.465 61.2699 123.755 59.5326C124.046 57.7953 117.656 59.5326 117.656 59.5326Z" fill="black"/>
<path id="Vector_30" d="M135.954 105.57L136.535 111.94C136.535 111.94 138.568 119.758 141.182 119.179C143.796 118.6 139.73 110.782 139.73 110.782L138.568 104.702L135.954 105.57Z" fill="#FFB9B9"/>
<path id="Vector_31" d="M123.465 168.402C123.465 168.402 125.208 179.115 124.046 181.142C122.884 183.169 125.208 183.458 125.208 183.458L132.178 181.721V178.536C132.178 178.536 129.855 168.112 129.855 167.533C129.855 166.954 123.465 168.402 123.465 168.402Z" fill="#FFB9B9"/>
<path id="Vector_32" d="M109.233 120.337C109.233 120.337 111.267 141.184 114.461 147.844C117.656 154.504 120.561 172.745 122.013 173.035C123.465 173.324 134.502 171.297 135.954 170.139C137.407 168.981 126.079 140.895 126.079 140.605C126.079 140.316 123.465 114.546 123.465 114.546L119.98 108.755L109.233 120.337Z" fill="#2F2E41"/>
<path id="Vector_33" opacity="0.1" d="M109.233 120.337C109.233 120.337 111.267 141.184 114.461 147.844C117.656 154.504 120.561 172.745 122.013 173.035C123.465 173.324 134.502 171.297 135.954 170.139C137.407 168.981 126.079 140.895 126.079 140.605C126.079 140.316 123.465 114.546 123.465 114.546L119.98 108.755L109.233 120.337Z" fill="black"/>
<path id="Vector_34" d="M126.078 180.563C126.078 180.563 123.174 179.115 122.593 179.984L120.27 183.458C120.27 183.458 110.394 188.091 113.88 188.67C117.365 189.249 124.045 189.249 124.917 188.67C125.788 188.091 135.373 182.879 135.082 182.59C134.792 182.3 132.468 176.22 132.178 176.799C131.887 177.378 127.821 181.721 126.078 180.563Z" fill="#2F2E41"/>
<path id="Vector_35" d="M77.2843 155.951C77.2843 155.951 70.6041 160.584 67.4092 159.716C64.2143 158.847 67.4092 166.086 67.4092 166.086L73.2181 169.271L74.9608 167.823C74.9608 167.823 81.0601 159.716 83.6741 159.426C86.2881 159.136 77.2843 155.951 77.2843 155.951Z" fill="#FFB9B9"/>
<path id="Vector_36" d="M107.491 102.965L108.652 109.045L86.8691 142.053C86.8691 142.053 73.799 155.083 74.9608 156.53C76.1226 157.978 83.3837 166.375 85.1264 165.217C86.8691 164.059 127.241 120.627 126.95 114.836C126.66 109.045 117.075 98.0422 117.075 98.0422L107.491 102.385V102.965Z" fill="#2F2E41"/>
<path id="Vector_37" d="M68.8611 161.742C68.8611 161.742 71.4751 158.847 70.0229 158.557C68.3895 158.27 66.7409 158.077 65.0853 157.978C64.5044 157.978 56.6624 153.925 56.0815 155.372C55.5006 156.82 59.5669 164.348 61.8904 165.217C64.214 166.085 72.6369 172.166 72.6369 172.166C72.6369 172.166 76.9935 168.402 76.4126 167.533C75.8317 166.665 67.6993 164.927 68.8611 161.742Z" fill="#2F2E41"/>
<path id="Vector_38" d="M119.979 62.4282C123.829 62.4282 126.95 59.317 126.95 55.4791C126.95 51.6412 123.829 48.53 119.979 48.53C116.13 48.53 113.009 51.6412 113.009 55.4791C113.009 59.317 116.13 62.4282 119.979 62.4282Z" fill="#FFB9B9"/>
<path id="Vector_39" d="M121.431 65.9028C121.431 65.9028 116.494 66.1924 115.042 65.3237C113.589 64.4551 110.394 77.1951 110.394 77.1951L108.361 93.9887C108.361 93.9887 108.071 96.0156 108.361 97.1737C108.652 98.3319 105.457 96.5947 106.619 99.7797C107.78 102.965 105.747 104.412 107.78 104.702C109.814 104.991 120.56 100.648 120.56 100.648L125.498 74.8787L126.95 64.4551L121.431 65.9028Z" fill="#D0CDE1"/>
<path id="Vector_40" d="M117.137 63.5505C117.137 63.5505 114.461 63.0072 113.59 63.5863C112.718 64.1654 109.523 68.5086 109.523 69.6668C109.523 70.825 108.362 83.565 108.362 84.7232C108.362 85.8813 107.49 91.9618 107.49 92.5409C107.49 93.12 108.235 95.6089 108.235 95.6089L110.104 92.2513C110.104 92.2513 109.523 87.9082 111.556 80.9591C113.59 74.01 117.137 63.5505 117.137 63.5505Z" fill="#575A89"/>
<path id="Vector_41" d="M119.98 67.9294C119.98 67.9294 123.86 61.849 124.098 62.428C124.337 63.0071 128.693 63.8758 128.693 63.8758C128.693 63.8758 136.535 69.3771 135.954 71.6935C135.374 74.0099 131.307 91.3826 131.307 91.3826C131.307 91.3826 127.532 100.358 130.436 106.729C133.34 113.098 129.855 115.415 129.855 115.415C129.855 115.415 127.532 116.573 128.112 117.731C128.693 118.889 121.432 123.233 120.561 120.048C119.69 116.863 108.943 97.7526 111.267 90.8035C113.59 83.8544 119.98 67.9294 119.98 67.9294Z" fill="#575A89"/>
<path id="Vector_42" d="M134.502 70.825C134.502 70.825 137.696 76.9054 137.116 77.774C136.535 78.6427 139.149 83.8545 139.149 83.8545C138.968 84.3202 138.968 84.8365 139.149 85.3022C139.439 86.1708 141.182 89.9349 141.182 91.3827C141.182 92.8304 140.891 97.4631 141.182 99.4899C141.472 101.517 145.248 106.439 142.053 106.729C138.858 107.018 133.63 109.624 133.921 106.729C134.211 103.833 135.082 96.884 133.921 95.7258C132.759 94.5677 131.888 94.5677 132.468 93.1199C133.049 91.6722 129.854 87.9081 129.854 87.9081L134.502 70.825Z" fill="#575A89"/>
<path id="Vector_43" d="M125.805 53.7672H114.78L112.283 48.0481H127.677L125.805 53.7672Z" fill="#2F2E41"/>
<path id="Vector_44" d="M113.333 57.9521C113.627 57.867 113.682 57.1634 113.454 56.3805C113.227 55.5976 112.803 55.0319 112.509 55.117C112.214 55.202 112.16 55.9057 112.388 56.6886C112.615 57.4715 113.038 58.0372 113.333 57.9521Z" fill="#FFB9B9"/>
<path id="Vector_45" d="M127.333 56.6886C127.561 55.9057 127.506 55.2021 127.212 55.117C126.917 55.0319 126.494 55.5976 126.267 56.3805C126.039 57.1634 126.093 57.8671 126.388 57.9521C126.682 58.0372 127.105 57.4715 127.333 56.6886Z" fill="#FFB9B9"/>
<path id="Vector_46" d="M192.485 166.84C192.485 173.565 188.474 175.914 183.527 175.914C183.412 175.914 183.297 175.912 183.184 175.911C182.954 175.904 182.727 175.894 182.503 175.878C178.037 175.564 174.569 173.095 174.569 166.84C174.569 160.368 182.863 152.202 183.49 151.595C183.49 151.595 183.49 151.595 183.49 151.595C183.49 151.595 183.491 151.594 183.491 151.594C183.491 151.594 183.491 151.594 183.491 151.594C183.491 151.594 183.491 151.593 183.491 151.593C183.515 151.571 183.527 151.559 183.527 151.559C183.527 151.559 192.485 160.114 192.485 166.84Z" fill="#F2F2F2"/>
<path id="Vector_47" d="M183.201 174.885L186.476 170.322L183.193 175.386L183.184 175.911C182.954 175.904 182.727 175.894 182.503 175.878L182.856 169.151L182.853 169.098L182.859 169.089L182.893 168.452L179.601 163.376L182.902 167.975L182.91 168.111L183.177 163.028L180.359 157.781L183.212 162.134L183.49 151.595L183.491 151.559V151.593L183.445 159.905L186.251 156.61L183.432 160.621L183.359 165.173L185.979 160.805L183.348 165.842L183.306 168.373L187.11 162.294L183.292 169.256L183.201 174.885Z" fill="#3F3D56"/>
</g>
<defs>
<clipPath id="clip0_195_5411">
<rect width="201" height="203" fill="white"/>
</clipPath>
</defs>
</svg>
